<svg width="413" height="362" viewBox="0 0 413 362" fill="none" xmlns="http://www.w3.org/2000/svg">
<path d="M7.32788 133.357L57.0612 133.133L106.794 133.049L206.261 132.9L305.728 133.049L355.461 133.133L405.194 133.357L355.461 133.59L305.728 133.674L206.261 133.823L106.794 133.674L57.0612 133.59L7.32788 133.357Z" fill="#EBEBEB"/>
<path d="M7.32788 165.617L57.0612 165.394L106.794 165.31L206.261 165.151L305.728 165.31L355.461 165.384L405.194 165.617L355.461 165.841L305.728 165.925L206.261 166.084L106.794 165.925L57.0612 165.841L7.32788 165.617Z" fill="#EBEBEB"/>
<path d="M7.32788 197.869L57.0612 197.645L106.794 197.561L206.261 197.402L305.728 197.561L355.461 197.645L405.194 197.869L355.461 198.102L305.728 198.186L206.261 198.335L106.794 198.176L57.0612 198.102L7.32788 197.869Z" fill="#EBEBEB"/>
<path d="M7.32788 230.129L57.0612 229.896L106.794 229.821L206.261 229.663L305.728 229.821L355.461 229.896L405.194 230.129L355.461 230.353L305.728 230.437L206.261 230.596L106.794 230.437L57.0612 230.353L7.32788 230.129Z" fill="#EBEBEB"/>
<path d="M7.32788 36.5938L57.0612 36.37L106.794 36.2861L206.261 36.1275L305.728 36.2861L355.461 36.37L405.194 36.5938L355.461 36.827L305.728 36.9016L206.261 37.0602L106.794 36.9016L57.0612 36.8177L7.32788 36.5938Z" fill="#EBEBEB"/>
<path d="M7.32788 68.8544L57.0612 68.6212L106.794 68.5373L206.261 68.3881L305.728 68.5373L355.461 68.6212L405.194 68.8544L355.461 69.0782L305.728 69.1622L206.261 69.3114L106.794 69.1622L57.0612 69.0782L7.32788 68.8544Z" fill="#EBEBEB"/>
<path d="M7.32788 101.106L57.0612 100.882L106.794 100.798L206.261 100.639L305.728 100.798L355.461 100.872L405.194 101.106L355.461 101.339L305.728 101.413L206.261 101.572L106.794 101.413L57.0612 101.329L7.32788 101.106Z" fill="#EBEBEB"/>
<path d="M7.32788 262.38L57.0612 262.157L106.794 262.073L206.261 261.914L305.728 262.073L355.461 262.157L405.194 262.38L355.461 262.614L305.728 262.688L206.261 262.847L106.794 262.688L57.0612 262.604L7.32788 262.38Z" fill="#EBEBEB"/>
<path d="M7.32788 294.641L57.0612 294.408L106.794 294.324L206.261 294.175L305.728 294.324L355.461 294.408L405.194 294.641L355.461 294.865L305.728 294.949L206.261 295.098L106.794 294.949L57.0612 294.865L7.32788 294.641Z" fill="#EBEBEB"/>
<path d="M240.228 10.3116L240.474 53.2324L240.562 96.1532L240.72 181.995L240.562 267.836L240.474 310.748L240.228 334.13L239.993 310.748L239.904 267.836L239.737 181.995L239.904 96.1532L239.993 53.2324L240.228 10.3116Z" fill="#EBEBEB"/>
<path d="M206.261 10.3116L206.497 53.2324L206.585 96.1532L206.752 181.995L206.585 267.836L206.506 310.748L206.261 334.13L206.015 310.748L205.937 267.836L205.77 181.995L205.937 96.1532L206.025 53.2324L206.261 10.3116Z" fill="#EBEBEB"/>
<path d="M172.293 10.3116L172.529 53.2324L172.618 96.1532L172.775 181.995L172.618 267.836L172.529 310.748L172.293 334.13L172.048 310.748L171.959 267.836L171.802 181.995L171.959 96.1532L172.048 53.2324L172.293 10.3116Z" fill="#EBEBEB"/>
<path d="M138.316 10.3116L138.552 53.2324L138.64 96.1532L138.807 181.995L138.64 267.836L138.562 310.748L138.316 334.13L138.08 310.748L137.992 267.836L137.825 181.995L137.992 96.1532L138.08 53.2324L138.316 10.3116Z" fill="#EBEBEB"/>
<path d="M342.151 10.3116L342.387 53.2324L342.475 96.1532L342.642 181.995L342.475 267.836L342.387 310.748L342.151 334.13L341.905 310.748L341.817 267.836L341.66 181.995L341.827 96.1532L341.905 53.2324L342.151 10.3116Z" fill="#EBEBEB"/>
<path d="M308.174 10.3116L308.419 53.2324L308.498 96.1532L308.665 181.995L308.498 267.836L308.419 310.748L308.174 334.13L307.938 310.748L307.849 267.836L307.682 181.995L307.849 96.1532L307.938 53.2324L308.174 10.3116Z" fill="#EBEBEB"/>
<path d="M274.206 10.3116L274.442 53.2324L274.53 96.1532L274.697 181.995L274.53 267.836L274.442 310.748L274.206 334.13L273.96 310.748L273.882 267.836L273.715 181.995L273.882 96.1532L273.97 53.2324L274.206 10.3116Z" fill="#EBEBEB"/>
<path d="M376.118 10.3116L376.354 53.2324L376.442 96.1532L376.609 181.995L376.442 267.836L376.364 310.748L376.118 334.13L375.883 310.748L375.794 267.836L375.627 181.995L375.794 96.1532L375.883 53.2324L376.118 10.3116Z" fill="#EBEBEB"/>
<path d="M342.151 10.3116L342.387 53.2324L342.475 96.1532L342.642 181.995L342.475 267.836L342.387 310.748L342.151 334.13L341.905 310.748L341.817 267.836L341.66 181.995L341.827 96.1532L341.905 53.2324L342.151 10.3116Z" fill="#EBEBEB"/>
<path d="M104.349 10.3116L104.584 53.2324L104.673 96.1532L104.84 181.995L104.673 267.836L104.584 310.748L104.349 334.13L104.103 310.748L104.015 267.836L103.857 181.995L104.024 96.1532L104.103 53.2324L104.349 10.3116Z" fill="#EBEBEB"/>
<path d="M70.3713 10.3116L70.6168 53.2324L70.6954 96.1532L70.8624 181.995L70.7052 267.836L70.6168 310.748L70.3713 334.13L70.1355 310.748L70.0471 267.836L69.8801 181.995L70.0471 96.1532L70.1355 53.2324L70.3713 10.3116Z" fill="#EBEBEB"/>
<path d="M36.4037 10.3116L36.6395 53.2324L36.7279 96.1532L36.8949 181.995L36.7279 267.836L36.6395 310.748L36.4037 334.13L36.1582 310.748L36.0796 267.836L35.9126 181.995L36.0796 96.1532L36.1582 53.2324L36.4037 10.3116Z" fill="#EBEBEB"/>
<path d="M208.451 140.949H9.55762V148.27H208.451V140.949Z" fill="#EBEBEB"/>
<path d="M38.7906 148.13V188.122H28.0148L25.0189 157.634L24.0857 148.13H38.7906Z" fill="#EBEBEB"/>
<path d="M24.0857 148.13H38.7906V157.634H25.0189L24.0857 148.13Z" fill="#DBDBDB"/>
<path d="M193.933 148.13L193 157.634L190.004 188.122H179.229V148.13H193.933Z" fill="#EBEBEB"/>
<path d="M193.933 148.13L193 157.634H179.229V148.13H193.933Z" fill="#DBDBDB"/>
<path d="M115.76 93.0592L114.796 93.2402L124.467 139.654L125.43 139.473L115.76 93.0592Z" fill="#EBEBEB"/>
<path d="M128.396 92.6675L116.777 140.756L117.735 140.964L129.353 92.876L128.396 92.6675Z" fill="#EBEBEB"/>
<path d="M134.054 93.6301L118.847 140.739L119.786 141.013L134.993 93.9034L134.054 93.6301Z" fill="#EBEBEB"/>
<path d="M116.708 94.6149L115.771 94.8958L130.68 139.71L131.617 139.429L116.708 94.6149Z" fill="#EBEBEB"/>
<path d="M124.714 92.4495L123.732 92.4708L124.878 140.061L125.86 140.04L124.714 92.4495Z" fill="#EBEBEB"/>
<path d="M132.776 141.247H115.271L118.739 120.421H129.308L132.776 141.247Z" fill="#C7C7C7"/>
<path d="M66.501 97.0579H34.999V141.256H66.501V97.0579Z" fill="#DBDBDB"/>
<path d="M57.1691 88.123H44.3208V97.0579H57.1691V88.123Z" fill="#EBEBEB"/>
<path d="M62.002 108.268H39.3799V128.815H62.002V108.268Z" fill="#EBEBEB"/>
<path d="M95.8124 91.2941H68.8093V141.247H95.8124V91.2941Z" fill="#DBDBDB"/>
<path d="M87.8166 83.637H76.8052V91.2941H87.8166V83.637Z" fill="#C7C7C7"/>
<path d="M95.8124 110.348H68.8093V127.966H95.8124V110.348Z" fill="#C7C7C7"/>
<path d="M395.46 213.77V9.02454L239.796 9.02454V213.77H395.46Z" fill="#EBEBEB"/>
<path d="M375.107 194.446V28.3491L260.14 28.3491V194.446H375.107Z" fill="white"/>
<g opacity="0.2">
<path d="M375.116 148.354L260.149 39.196V28.3585H284.854L375.116 114.051V148.354Z" fill="#EBEBEB"/>
<path d="M321.837 194.455H285.699L260.149 170.197V135.884L321.837 194.455Z" fill="#EBEBEB"/>
<path d="M375.117 49.763L352.563 28.3585H364.439L375.117 38.4872V49.763Z" fill="#EBEBEB"/>
<path d="M362.7 194.455H358.722L260.149 100.863V97.0859L362.7 194.455Z" fill="#EBEBEB"/>
<path d="M375.116 102.663L296.848 28.3585H300.826L375.116 98.8859V102.663Z" fill="#EBEBEB"/>
</g>
<path d="M77.3257 247.561C64.831 263.621 51.7862 282.265 48.6429 302.401C48.6419 302.464 48.6644 302.526 48.7064 302.575C48.7484 302.624 48.8073 302.658 48.8728 302.67C48.9383 302.682 49.0062 302.672 49.0647 302.642C49.1232 302.611 49.1686 302.562 49.1929 302.503C50.6306 297.011 52.4754 291.623 54.7134 286.378C62.9253 284.233 70.9899 282.47 75.3415 274.729C79.7323 266.773 79.1724 256.402 78.2883 247.738C78.2392 247.243 77.5811 247.225 77.3257 247.561Z" fill="#FF407D"/>
<path d="M54.8412 286.201C60.4501 274.244 67.6109 262.241 76.8052 252.41C76.8739 252.345 76.9623 252.41 76.9132 252.504C70.9114 259.508 66.3634 267.128 61.9137 274.887C66.0491 270.905 70.5774 267.333 74.4968 263.108C74.5754 263.024 74.6932 263.108 74.6245 263.229C70.6953 267.659 66.4813 272.472 61.4127 275.755C60.0571 278.13 58.6852 280.514 57.2969 282.908C57.6407 282.731 57.9943 282.563 58.3381 282.405C58.3971 282.405 58.456 282.461 58.3971 282.489C58.0042 282.675 57.6211 282.871 57.2281 283.029C56.57 284.158 55.9119 285.296 55.2636 286.415C55.0868 286.667 54.7233 286.452 54.8412 286.201Z" fill="#263238"/>
<path d="M59.0159 282.069C62.3704 280.277 65.5755 278.244 68.6031 275.988C68.6817 275.923 68.7995 276.035 68.721 276.1C65.7914 278.502 62.5812 280.576 59.1535 282.283C58.9963 282.33 58.8588 282.069 59.0159 282.069Z" fill="#263238"/>
<path d="M47.1989 299.379C47.1989 299.621 47.6606 299.621 47.6507 299.379C47.7195 292.748 47.6507 286.079 47.7686 279.42C49.5564 275.988 53.3971 274.095 56.0689 271.343C57.9897 269.337 59.6608 267.128 61.0492 264.759C64.264 259.095 66.2293 252.869 66.825 246.46C67.5617 239.372 64.7327 215.953 61.5796 216.774C59.949 217.193 54.7036 228.786 53.2596 232.629C50.9869 238.951 49.3233 245.457 48.2892 252.065C45.7353 267.641 45.9514 283.673 47.1989 299.379Z" fill="#FF407D"/>
<path d="M47.1303 270.765C47.5134 262.371 49.5074 253.903 51.364 245.761C53.3286 236.994 55.7253 228.74 60.4796 220.915C60.5 220.889 60.5293 220.872 60.5622 220.866C60.5951 220.86 60.6292 220.865 60.6582 220.881C60.6872 220.897 60.709 220.923 60.7195 220.953C60.73 220.983 60.7285 221.016 60.7154 221.045C57.5597 227.123 55.1219 233.513 53.4464 240.099C53.7608 239.624 54.1439 239.167 54.4287 238.728C54.5564 238.56 54.8707 238.728 54.7332 238.906C54.3114 239.614 53.8144 240.28 53.25 240.892C53.25 240.892 53.25 240.892 53.191 240.892C51.5506 247.16 50.3817 253.567 49.3798 259.965L49.5959 259.722C49.6076 259.713 49.6224 259.708 49.6378 259.707C49.6532 259.706 49.6683 259.711 49.6807 259.719C49.6932 259.728 49.7023 259.74 49.7065 259.754C49.7107 259.768 49.7098 259.783 49.7039 259.797L49.3012 260.431C48.8002 263.677 48.3189 266.913 47.8572 270.122C53.9376 265.188 59.1437 259.359 62.0709 252.187C62.0709 252.187 62.1397 252.187 62.1299 252.187C59.2517 259.648 54.7234 266.242 47.759 270.756L47.3759 273.349C47.3759 273.526 47.0419 273.479 47.0517 273.302C47.0517 272.546 47.0517 271.772 47.1205 271.008C47.0893 270.974 47.073 270.93 47.0748 270.884C47.0766 270.839 47.0965 270.797 47.1303 270.765Z" fill="#263238"/>
<path d="M50.0181 258.603C54.6643 252.019 59.0061 245.611 62.4146 238.327C62.4146 238.243 62.6012 238.327 62.5619 238.393C59.6937 245.63 55.6859 252.961 50.244 258.78C50.136 258.902 49.9199 258.752 50.0181 258.603Z" fill="#263238"/>
<path d="M56.1968 236.704C58.1614 233.459 60.126 230.316 61.9727 227.014C61.9727 226.921 62.1495 227.014 62.1102 227.089C60.6236 230.534 58.7392 233.812 56.4915 236.863C56.4694 236.9 56.4326 236.927 56.3893 236.939C56.346 236.95 56.2997 236.945 56.2607 236.924C56.2216 236.903 56.1929 236.868 56.1809 236.827C56.169 236.786 56.1747 236.742 56.1968 236.704Z" fill="#263238"/>
<path d="M42.4643 280.204C42.3703 284.596 41.8241 288.969 40.8337 293.261C40.9123 293.736 40.9811 294.193 41.0498 294.697C42.4755 289.951 43.3032 285.06 43.5154 280.129C43.5567 280.061 43.5785 279.984 43.5785 279.905C43.5785 279.826 43.5567 279.749 43.5154 279.681C43.7135 273.07 43.1967 266.457 41.9732 259.946C39.8121 247.756 35.0971 236.061 26.1289 226.93C26.0562 226.869 25.9697 226.825 25.876 226.801C25.7823 226.777 25.6841 226.774 25.5889 226.792C25.4938 226.81 25.4043 226.849 25.3276 226.905C25.2509 226.961 25.1889 227.034 25.1466 227.117C21.5317 235.846 22.7891 246.246 25.8636 254.947C27.5393 259.661 29.9319 264.116 32.9656 268.172C36.0598 272.248 39.9693 275.717 42.4643 280.204Z" fill="#FF407D"/>
<path d="M27.2095 230.987C35.6964 244.044 41.6 259.564 42.3171 275.009C42.3171 275.288 41.8456 275.363 41.8063 275.074C41.6098 273.694 41.3839 272.276 41.1481 270.942C37.6316 267.753 34.0266 264.414 31.5217 260.394C31.5217 260.319 31.5807 260.235 31.6396 260.301C34.5494 263.688 37.6688 266.908 40.9812 269.944C40.3721 266.531 39.6551 263.173 38.8005 259.862L38.1325 259.116C37.9852 258.948 38.2307 258.706 38.3781 258.874L38.5844 259.088C37.3924 254.542 35.9097 250.07 34.1444 245.695C31.9834 243.252 29.5768 241.135 27.9953 238.187C27.9887 238.173 27.988 238.156 27.9932 238.141C27.9985 238.126 28.0094 238.113 28.0239 238.105C28.0384 238.097 28.0554 238.095 28.0719 238.098C28.0883 238.101 28.103 238.109 28.1132 238.122C29.3803 239.81 30.5984 241.508 32.0423 243.065C32.6219 243.69 33.2407 244.278 33.8399 244.884C31.884 240.146 29.5628 235.551 26.8951 231.137C26.8905 231.1 26.8979 231.064 26.9161 231.031C26.9343 230.999 26.9626 230.973 26.997 230.957C27.0314 230.94 27.0703 230.935 27.1083 230.94C27.1463 230.946 27.1817 230.962 27.2095 230.987Z" fill="#263238"/>
<path d="M28.9285 247.122C31.669 250.62 34.8222 253.968 37.3467 257.587C37.4154 257.689 37.2583 257.801 37.1699 257.717C33.889 254.798 31.119 250.816 28.7418 247.225C28.6632 247.104 28.8499 247.02 28.9285 247.122Z" fill="#263238"/>
<path d="M37.7298 258.398L37.8477 258.51C37.9263 258.585 37.8477 258.706 37.72 258.631L37.6021 258.519C37.5852 258.503 37.5757 258.481 37.5757 258.459C37.5757 258.436 37.5852 258.414 37.6021 258.398C37.6191 258.382 37.642 258.373 37.666 258.373C37.6899 258.373 37.7129 258.382 37.7298 258.398Z" fill="#263238"/>
<path d="M13.919 256.122C14.5968 262.856 18.3295 270.886 22.8677 276.072C24.8668 278.326 27.3392 280.158 30.1268 281.453C33.2799 282.927 36.5706 284.634 39.822 285.846C41.3675 289.583 42.5159 293.457 43.2502 297.411C43.3582 297.075 43.4565 296.73 43.5645 296.385C41.4821 279.355 29.8714 264.796 15.0192 255.451C14.9034 255.379 14.7683 255.341 14.6301 255.341C14.492 255.34 14.3567 255.378 14.2404 255.449C14.1242 255.52 14.0321 255.621 13.9751 255.741C13.918 255.86 13.8986 255.993 13.919 256.122Z" fill="#FF407D"/>
<path d="M19.0465 261.159C18.9385 261.065 19.0465 260.888 19.1939 260.972C27.3532 266.732 33.8585 274.345 38.1127 283.113C38.2208 283.347 37.8868 283.542 37.7493 283.309C37.0519 282.162 36.3544 281.052 35.6374 279.952C32.2485 279.345 29.0364 277.079 26.5217 274.934C26.453 274.878 26.5217 274.785 26.62 274.841C27.9194 275.959 29.3615 276.918 30.9126 277.695C32.3165 278.305 33.7525 278.847 35.215 279.317C33.9577 277.452 32.6479 275.63 31.2858 273.852C27.6274 272.525 24.195 270.693 21.0995 268.415C21.0013 268.349 21.0995 268.191 21.1977 268.256C24.2632 270.014 27.424 271.617 30.667 273.059C28.5939 270.47 26.3602 268 23.9776 265.663C22.8283 265.085 21.6594 264.507 20.5396 263.891C20.4512 263.835 20.5396 263.686 20.6182 263.723C21.5458 264.029 22.43 264.443 23.2507 264.955C21.905 263.668 20.5199 262.399 19.0465 261.159Z" fill="#263238"/>
<path d="M19.3608 267.034C19.5603 267.152 19.7506 267.283 19.9306 267.426C19.9895 267.473 19.9306 267.538 19.8618 267.51C19.6529 267.421 19.4525 267.315 19.2626 267.193C19.2448 267.179 19.2329 267.159 19.229 267.137C19.225 267.116 19.2293 267.093 19.2411 267.074C19.2529 267.055 19.2714 267.041 19.2933 267.034C19.3152 267.026 19.3391 267.027 19.3608 267.034Z" fill="#263238"/>
<path d="M66.7367 334.298H26.0503L29.341 299.118L30.058 291.358H62.7289L63.4558 299.118L66.7367 334.298Z" fill="#455A64"/>
<path d="M63.456 299.118H29.3411L30.0581 291.358H62.7291L63.456 299.118Z" fill="#263238"/>
<path d="M64.6836 285.939H28.113V293.615H64.6836V285.939Z" fill="#455A64"/>
<path d="M174.671 222.024C174.671 222.024 174.671 222.108 174.739 222.276C174.808 222.444 174.808 222.519 174.847 222.696L204.778 334.298H283.253C283.41 316.493 263.224 257.689 263.224 257.689C266.613 243.475 260.857 222.024 260.857 222.024H174.671Z" fill="#455A64"/>
<path d="M131.027 334.298H211.035C211.271 328.702 212.469 299.631 212.469 299.631C212.469 299.631 213.52 299.024 213.952 298.791L234.187 289.353C246.535 264.637 246.957 224.3 247.144 222.276C247.144 222.155 247.144 222.071 247.144 222.024H136.145C136.145 222.024 116.951 268.564 132.913 300.116C132.884 300.116 131.479 328.702 131.027 334.298Z" fill="#455A64"/>
<path d="M203 303.361C206.438 301.086 210.151 299.192 213.805 297.234C217.459 295.275 221.31 293.326 225.19 291.638C232.847 288.434 240.723 285.723 248.765 283.524C248.961 283.468 249.098 283.776 248.902 283.86C241.23 286.984 233.785 290.575 226.152 293.792C222.311 295.406 218.441 296.954 214.601 298.568C210.76 300.181 207.007 301.99 203.137 303.529C202.98 303.52 202.911 303.417 203 303.361Z" fill="#263238"/>
<path d="M224.001 267.697C224.09 264.124 224.365 260.552 224.541 256.98C224.983 248.586 225.327 240.081 226.152 231.677C226.152 231.608 226.181 231.542 226.233 231.493C226.285 231.444 226.354 231.416 226.427 231.416C226.5 231.416 226.57 231.444 226.622 231.493C226.673 231.542 226.702 231.608 226.702 231.677C226.82 238.206 226.555 244.735 226.408 251.263C226.339 254.527 226.241 257.792 226.152 261.056C225.958 264.162 225.935 267.275 226.084 270.383C226.27 272.733 226.811 277.294 230.013 277.583C233.048 277.844 234.718 274.729 235.484 272.444C237.449 266.643 238.097 260.375 238.716 254.341C239.089 250.76 239.462 247.197 239.698 243.615C240.038 239.953 240.163 236.276 240.071 232.601C240.071 232.368 240.435 232.377 240.455 232.601C240.661 236.285 241.191 239.941 241.329 243.643C241.466 247.346 241.466 251.002 241.211 254.667C240.975 258.183 240.661 261.728 240.101 265.216C239.728 268.432 238.919 271.588 237.694 274.608C236.584 277.079 234.649 279.355 231.732 279.896C231.376 279.961 231.014 279.996 230.651 279.998C230.651 280.763 230.504 281.519 230.455 282.265C230.366 283.449 230.209 284.624 230.042 285.799C229.864 286.951 229.611 288.091 229.286 289.213C229.017 290.349 228.591 291.447 228.019 292.477C227.995 292.508 227.961 292.531 227.922 292.543C227.884 292.555 227.843 292.555 227.804 292.544C227.765 292.533 227.731 292.51 227.706 292.48C227.681 292.45 227.667 292.413 227.665 292.375C227.641 291.246 227.74 290.117 227.96 289.008C228.127 287.861 228.294 286.704 228.549 285.566C228.805 284.428 229.011 283.328 229.247 282.218C229.414 281.472 229.522 280.698 229.669 279.942C228.726 279.783 227.839 279.405 227.086 278.842C226.334 278.28 225.74 277.549 225.357 276.715C224.031 273.927 223.942 270.681 224.001 267.697Z" fill="#263238"/>
<path d="M148.61 266.064C154.003 266.419 159.317 267.081 164.72 266.465C169.813 265.978 174.667 264.175 178.757 261.252C187.597 254.723 191.527 244.007 193.933 233.972C193.941 233.925 193.968 233.883 194.009 233.855C194.049 233.827 194.1 233.815 194.149 233.823C194.199 233.83 194.243 233.856 194.273 233.894C194.302 233.933 194.314 233.981 194.306 234.028C193.324 242.729 191.36 251.748 185.417 258.734C182.865 261.817 179.642 264.34 175.967 266.13C172.063 267.846 167.793 268.679 163.492 268.564C158.446 268.536 153.424 267.91 148.542 266.699C148.453 266.69 148.372 266.648 148.316 266.583C148.259 266.517 148.233 266.433 148.242 266.349C148.251 266.265 148.295 266.188 148.364 266.134C148.433 266.081 148.522 266.056 148.61 266.064Z" fill="#263238"/>
<path d="M210.475 327.461C210.524 325.176 210.622 322.882 210.75 320.587C211.006 315.924 211.281 311.354 211.732 306.738C211.968 304.126 212.125 301.505 212.469 298.913C212.477 298.887 212.493 298.865 212.515 298.849C212.537 298.833 212.564 298.825 212.592 298.825C212.62 298.825 212.647 298.833 212.669 298.849C212.691 298.865 212.707 298.887 212.715 298.913C212.774 301.207 212.666 303.501 212.636 305.796C212.607 308.09 212.587 310.375 212.508 312.669C212.361 317.286 212.096 321.921 211.742 326.529C211.634 327.816 211.506 329.093 211.389 330.38C211.328 331.639 211.134 332.889 210.809 334.111C210.809 334.176 210.672 334.186 210.652 334.111C210.479 333.025 210.413 331.926 210.455 330.828C210.426 329.718 210.455 328.59 210.475 327.461Z" fill="#263238"/>
<path d="M218.049 41.3597C220.357 41.7608 230.563 41.1639 236.83 50.2573C242.724 58.8657 243.578 84.1686 244.639 89.7179C245.7 95.2672 253.234 96.489 254.658 102.952C255.886 108.548 251.564 110.311 250.906 114.312C250.395 117.408 253.44 122.258 250.179 126.716C247.232 130.773 242.478 129.645 239.502 130.811C236.525 131.977 234.374 138.272 228.922 139.69C223.471 141.107 218.992 136.248 216.153 136.136C213.314 136.024 209.473 144.129 200.23 142.926C190.986 141.723 188.737 134.14 184.994 132.48C181.252 130.82 171.488 132.853 167.313 128.087C163.139 123.322 162.765 117.213 160.919 114.881C159.072 112.549 154.907 112.689 152.746 107.42C150.585 102.15 155.821 99.1004 156.793 94.6517C157.471 91.5553 154.701 88.5335 157.029 83.8702C160.231 77.4442 168.6 79.2815 172.205 72.6783C175.034 67.5207 181.566 44.8105 196.507 39.9048C206.841 36.5286 218.049 41.3597 218.049 41.3597Z" fill="#263238"/>
<path d="M244.423 88.3842C244.916 89.574 245.708 90.6308 246.731 91.462L249.619 94.1014C251.595 95.7042 253.292 97.5927 254.649 99.6973C255.275 100.706 255.648 101.838 255.738 103.006C255.829 104.174 255.634 105.346 255.169 106.431C254.632 107.515 253.919 108.512 253.057 109.388C252.069 110.344 251.232 111.431 250.572 112.615C250.14 113.982 250.191 115.447 250.719 116.784C251.083 118.024 251.495 119.208 251.79 120.402C252.409 122.771 252.458 125.261 251.161 127.295C250.559 128.307 249.614 129.096 248.48 129.533C247.282 129.95 246.012 130.146 244.737 130.111C243.431 130.111 242.105 130.018 240.808 129.971C239.46 129.8 238.089 130.025 236.879 130.615C238.137 130.179 239.498 130.089 240.808 130.354C242.115 130.512 243.431 130.727 244.737 130.811C246.122 130.93 247.517 130.787 248.843 130.391C250.216 129.929 251.388 129.047 252.173 127.882C253.863 125.597 253.755 122.585 253.155 120.113C252.871 118.845 252.468 117.623 252.173 116.429C251.76 115.383 251.712 114.239 252.036 113.165C252.939 111.197 255.434 109.518 256.495 106.953C257.034 105.688 257.244 104.318 257.108 102.959C256.971 101.6 256.491 100.293 255.709 99.1471C254.183 97.0145 252.31 95.1257 250.159 93.5511L247.055 91.1635C245.974 90.4316 245.075 89.4827 244.423 88.3842Z" fill="#263238"/>
<path d="M182.273 52.1879C179.523 55.9185 177.706 60.1621 175.486 64.1352C174.376 66.1217 173.335 68.1456 172.087 70.0202C171.497 70.9426 170.809 71.8052 170.034 72.5944C169.866 72.7758 169.671 72.9329 169.455 73.0607C169.253 73.2085 169.031 73.3307 168.796 73.4244C168.276 73.6483 167.736 73.8441 167.185 74.04C164.909 74.7732 162.676 75.6231 160.496 76.5861C158.198 77.5615 156.275 79.1911 154.995 81.2494C154.355 82.315 154.017 83.52 154.013 84.7469C154.078 85.9286 154.381 87.0874 154.907 88.1604C156.042 90.1407 156.68 92.3429 156.773 94.5957C157.196 92.32 156.361 90.0164 155.604 87.9086C155.189 86.9012 154.975 85.8288 154.976 84.7469C155.031 83.7008 155.37 82.6859 155.958 81.7997C157.216 80.0059 158.988 78.5916 161.066 77.724C163.148 76.7913 165.407 76.1385 167.677 75.3457C168.246 75.1405 168.806 74.926 169.376 74.6649C169.992 74.3891 170.545 74.0027 171.007 73.527C171.851 72.6573 172.589 71.6999 173.207 70.6731C174.436 68.7083 175.532 66.671 176.488 64.5735L179.307 58.3341C180.172 56.2334 181.162 54.1813 182.273 52.1879Z" fill="#263238"/>
<path d="M158.758 113.258C159.74 114.61 159.74 116.299 160.025 117.875C160.31 119.451 160.565 121.083 160.919 122.687C161.255 124.315 161.765 125.905 162.441 127.434C163.126 129.049 164.215 130.48 165.614 131.603C168.747 133.739 172.608 133.702 175.967 133.301C177.676 133.086 179.356 132.788 181.026 132.62C182.692 132.332 184.406 132.424 186.026 132.891C184.468 132.145 182.728 131.807 180.987 131.911C179.248 131.911 177.549 132.116 175.859 132.191C172.559 132.359 169.042 132.191 166.537 130.456C165.324 129.483 164.368 128.253 163.748 126.866C163.054 125.429 162.486 123.941 162.048 122.417C161.567 120.878 161.174 119.302 160.752 117.754C160.526 116.97 160.29 116.177 160.015 115.403C159.796 114.598 159.363 113.859 158.758 113.258Z" fill="#263238"/>
<path d="M223.942 119.955C263.234 134.877 323.35 166.13 322.977 180.288C322.574 196.069 270.856 187.899 269.432 185.884C268.636 184.793 234.728 158.595 217.282 137.386C198.403 114.452 214.051 116.187 223.942 119.955Z" fill="#D3766A"/>
<path d="M274.255 139.913L240.562 163.379C240.562 163.379 216.987 141.527 208.667 129.654C200.711 118.285 202.518 108.94 226.437 118.462C255.906 130.195 274.255 139.913 274.255 139.913Z" fill="#FF407D"/>
<path d="M238.392 139.149C238.116 139.395 237.777 139.568 237.409 139.652C237.059 139.727 236.694 139.715 236.35 139.617C236.006 139.519 235.694 139.338 235.445 139.093C235.064 138.736 234.578 138.499 234.051 138.412C233.525 138.326 232.983 138.394 232.498 138.608C231.707 139.086 231.069 139.76 230.651 140.557C231.044 140.342 231.388 140.081 231.751 139.848C232.028 139.598 232.366 139.415 232.734 139.317C233.077 139.229 233.439 139.227 233.783 139.312C234.128 139.397 234.443 139.566 234.698 139.802C235.069 140.156 235.542 140.399 236.057 140.5C236.572 140.601 237.107 140.556 237.596 140.37C238.578 139.941 238.971 139.121 239.482 138.44C239.099 138.654 238.765 138.915 238.392 139.149ZM267.212 136.351C267.028 136.547 266.803 136.704 266.55 136.811C266.298 136.919 266.025 136.975 265.748 136.976C265.222 136.972 264.706 137.118 264.267 137.393C263.828 137.669 263.486 138.063 263.283 138.524C263.032 139.386 263.066 140.301 263.381 141.145C263.499 140.725 263.548 140.314 263.627 139.895C263.648 139.525 263.774 139.168 263.99 138.86C264.179 138.573 264.441 138.338 264.752 138.175C265.063 138.011 265.413 137.926 265.768 137.927C266.218 137.918 266.658 137.801 267.048 137.588C267.438 137.374 267.765 137.071 267.998 136.705L267.212 136.351ZM214.345 121.829C214.236 122.241 214.15 122.658 214.09 123.079C214.078 123.451 213.966 123.813 213.766 124.133C213.584 124.414 213.33 124.647 213.027 124.81C212.725 124.973 212.384 125.061 212.037 125.066C211.51 125.061 210.994 125.204 210.553 125.478C210.113 125.752 209.767 126.144 209.561 126.604C209.323 127.472 209.361 128.387 209.669 129.235C209.778 128.824 209.827 128.404 209.915 127.994C209.936 127.624 210.062 127.267 210.278 126.959C210.466 126.674 210.727 126.439 211.036 126.276C211.345 126.113 211.693 126.027 212.047 126.026C212.578 126.022 213.095 125.864 213.53 125.575C213.966 125.285 214.298 124.876 214.483 124.403C214.677 123.555 214.629 122.673 214.345 121.848V121.829ZM243.087 125.98C242.696 125.959 242.317 125.844 241.987 125.644C241.565 125.365 241.256 124.956 241.113 124.487L240.012 124.012C240.014 124.503 240.167 124.984 240.453 125.393C240.74 125.803 241.147 126.123 241.623 126.315C242.533 126.546 243.495 126.511 244.384 126.213C243.951 126.119 243.519 126.073 243.087 125.998V125.98Z" fill="white"/>
<path d="M262.831 137.918C260.428 139.174 258.109 140.569 255.886 142.096C253.627 143.551 251.397 145.043 249.167 146.545C246.938 148.046 244.678 149.566 242.478 151.133C240.278 152.7 238.067 154.444 235.847 156.095C235.73 156.188 235.847 156.403 236.024 156.31C238.333 154.911 240.68 153.577 242.959 152.122C245.238 150.667 247.439 149.165 249.668 147.673C251.898 146.181 254.148 144.642 256.358 143.084C258.667 141.555 260.875 139.892 262.969 138.104C262.995 138.087 263.012 138.06 263.018 138.031C263.023 138.001 263.016 137.97 262.998 137.946C262.98 137.921 262.952 137.904 262.921 137.899C262.889 137.893 262.857 137.9 262.831 137.918Z" fill="#263238"/>
<path d="M258.931 150.564L240.563 163.342C240.563 163.342 216.988 141.499 208.668 129.626C206.828 127.164 205.474 124.405 204.67 121.484L258.931 150.564Z" fill="#263238"/>
<path d="M264.373 246.227C265.719 222.239 247.409 193.066 247.409 193.066C247.409 193.066 258.892 174.03 252.232 160.423C248.873 153.502 224.207 125.97 211.781 117.418C200.131 109.388 183.226 117.977 176.92 124.273C152.667 148.522 135.3 191.182 130.438 246.451L264.373 246.227Z" fill="#FF407D"/>
<path d="M210.043 151.497C209.654 151.483 209.276 151.366 208.952 151.161C208.65 150.981 208.401 150.731 208.229 150.434C208.057 150.137 207.968 149.803 207.97 149.464C207.96 148.961 207.792 148.471 207.488 148.059C207.183 147.647 206.756 147.331 206.261 147.151C205.344 146.958 204.389 147.009 203.501 147.3C203.933 147.403 204.375 147.449 204.817 147.533C205.208 147.545 205.59 147.651 205.927 147.841C206.224 148.013 206.47 148.254 206.641 148.541C206.813 148.828 206.905 149.152 206.909 149.482C206.906 149.985 207.059 150.477 207.349 150.896C207.639 151.316 208.053 151.645 208.54 151.842C209.45 152.068 210.411 152.032 211.3 151.74C210.917 151.6 210.485 151.553 210.043 151.497ZM253.715 171.241C252.796 171.05 251.838 171.099 250.945 171.381C251.387 171.493 251.829 171.54 252.261 171.624C252.653 171.632 253.036 171.738 253.371 171.932C253.725 172.132 254.009 172.427 254.187 172.78C254.187 172.37 254.265 171.941 254.285 171.512C254.107 171.394 253.916 171.293 253.715 171.213V171.241ZM218.726 204.612C218.334 204.597 217.954 204.481 217.626 204.276C217.325 204.095 217.076 203.844 216.905 203.547C216.733 203.251 216.643 202.917 216.644 202.579C216.637 202.076 216.47 201.586 216.165 201.175C215.86 200.764 215.431 200.45 214.935 200.275C214.022 200.079 213.07 200.127 212.184 200.415C212.626 200.517 213.049 200.573 213.491 200.657C213.885 200.661 214.271 200.764 214.61 200.956C214.903 201.132 215.146 201.374 215.318 201.66C215.489 201.946 215.583 202.268 215.593 202.597C215.59 203.098 215.742 203.589 216.03 204.008C216.318 204.428 216.729 204.758 217.213 204.957C218.124 205.183 219.085 205.147 219.974 204.854C219.591 204.714 219.158 204.658 218.726 204.584V204.612ZM254.315 206.048H254.157C253.768 206.028 253.391 205.908 253.067 205.703C252.764 205.526 252.514 205.277 252.342 204.982C252.17 204.686 252.081 204.353 252.085 204.015C252.075 203.511 251.905 203.023 251.599 202.612C251.292 202.201 250.863 201.887 250.366 201.711C249.45 201.522 248.497 201.567 247.605 201.842C248.047 201.963 248.48 202 248.922 202.084C249.315 202.096 249.697 202.205 250.032 202.401C250.329 202.571 250.575 202.81 250.747 203.096C250.919 203.381 251.011 203.704 251.014 204.034C251.008 204.535 251.161 205.026 251.451 205.445C251.742 205.864 252.157 206.191 252.645 206.384C253.215 206.582 253.835 206.611 254.423 206.468L254.315 206.048ZM186.262 168.835C185.872 168.816 185.495 168.697 185.171 168.49C184.868 168.313 184.618 168.065 184.446 167.769C184.274 167.473 184.185 167.14 184.189 166.802C184.18 166.298 184.013 165.809 183.708 165.396C183.403 164.984 182.976 164.668 182.48 164.489C181.576 164.282 180.631 164.304 179.739 164.554C180.173 164.658 180.612 164.739 181.055 164.797C181.447 164.814 181.828 164.923 182.165 165.114C182.468 165.28 182.719 165.519 182.891 165.808C183.064 166.096 183.153 166.423 183.148 166.755C183.146 167.256 183.301 167.746 183.593 168.162C183.885 168.579 184.301 168.904 184.788 169.096C185.697 169.334 186.66 169.301 187.548 169.003C187.136 168.928 186.704 168.882 186.262 168.807V168.835ZM168.718 222.118C168.326 222.096 167.946 221.977 167.618 221.773C167.316 221.594 167.068 221.345 166.896 221.049C166.724 220.754 166.635 220.422 166.635 220.085C166.65 219.579 166.502 219.081 166.211 218.658C165.919 218.234 165.499 217.906 165.005 217.716C164.093 217.521 163.142 217.566 162.254 217.846C162.687 217.958 163.119 218.005 163.561 218.089C163.955 218.097 164.34 218.2 164.681 218.387C164.974 218.565 165.218 218.808 165.389 219.096C165.56 219.384 165.654 219.707 165.663 220.038C165.658 220.538 165.809 221.028 166.098 221.447C166.386 221.865 166.799 222.193 167.284 222.388C168.194 222.614 169.155 222.578 170.044 222.286C169.582 222.211 169.15 222.164 168.718 222.09V222.118ZM245.651 245.966C245.639 245.46 245.47 244.97 245.164 244.556C244.858 244.142 244.429 243.825 243.932 243.643C243.015 243.451 242.06 243.502 241.171 243.793C241.614 243.895 242.046 243.951 242.488 244.026C242.88 244.034 243.262 244.14 243.598 244.334C243.895 244.507 244.141 244.75 244.313 245.039C244.485 245.327 244.577 245.653 244.58 245.984C244.58 246.087 244.58 246.18 244.58 246.292H245.631C245.62 246.174 245.627 246.054 245.651 245.938V245.966ZM236.506 186.658C236.23 186.911 235.893 187.094 235.523 187.19C235.18 187.275 234.82 187.276 234.476 187.193C234.133 187.11 233.817 186.945 233.559 186.714C233.191 186.355 232.719 186.108 232.203 186.005C231.687 185.902 231.15 185.948 230.661 186.136C229.679 186.556 229.286 187.386 228.775 188.066C229.178 187.843 229.522 187.591 229.885 187.348C230.163 187.107 230.501 186.937 230.867 186.854C231.218 186.779 231.583 186.792 231.927 186.89C232.271 186.988 232.583 187.168 232.832 187.414C233.213 187.769 233.699 188.005 234.226 188.092C234.752 188.179 235.294 188.111 235.779 187.899C236.572 187.421 237.214 186.747 237.635 185.949C237.247 186.158 236.869 186.385 236.506 186.63V186.658ZM150.339 168.938C150.065 169.191 149.727 169.374 149.357 169.469C148.964 169.562 148.552 169.545 148.168 169.423C148.031 169.712 147.923 170.01 147.795 170.299C148.405 170.481 149.064 170.437 149.642 170.178C150.431 169.698 151.069 169.024 151.489 168.229C151.066 168.434 150.713 168.695 150.339 168.938ZM150.339 204.724C150.066 204.978 149.727 205.162 149.357 205.255C149.013 205.343 148.652 205.344 148.307 205.259C147.963 205.174 147.647 205.006 147.392 204.77C147.018 204.406 146.537 204.156 146.011 204.055C145.486 203.953 144.94 204.004 144.446 204.201C143.463 204.612 143.07 205.451 142.569 206.123C142.962 205.908 143.306 205.647 143.669 205.414C143.959 205.163 144.316 204.992 144.701 204.92C145.051 204.844 145.417 204.856 145.761 204.954C146.105 205.052 146.417 205.233 146.665 205.479C147.049 205.831 147.535 206.065 148.06 206.152C148.586 206.238 149.126 206.173 149.612 205.964C150.403 205.486 151.042 204.812 151.459 204.015C151.066 204.229 150.713 204.491 150.339 204.724ZM186.949 240.873C186.677 241.13 186.338 241.313 185.967 241.405C185.623 241.491 185.262 241.491 184.918 241.407C184.574 241.322 184.258 241.154 184.002 240.92C183.629 240.554 183.147 240.304 182.622 240.203C182.096 240.101 181.55 240.153 181.055 240.351C180.073 240.771 179.67 241.601 179.169 242.272C179.562 242.058 179.906 241.797 180.279 241.564C180.551 241.316 180.892 241.147 181.262 241.079C181.611 241.001 181.976 241.011 182.321 241.107C182.665 241.204 182.977 241.383 183.226 241.629C183.608 241.983 184.094 242.219 184.62 242.305C185.147 242.392 185.688 242.325 186.173 242.114C186.962 241.633 187.599 240.96 188.02 240.165C187.666 240.379 187.322 240.64 186.949 240.873ZM189.709 197.039C189.43 197.286 189.093 197.468 188.727 197.57C188.383 197.657 188.022 197.658 187.678 197.573C187.333 197.488 187.018 197.32 186.762 197.085C186.388 196.721 185.907 196.471 185.381 196.37C184.856 196.268 184.31 196.319 183.816 196.516C182.833 196.936 182.44 197.766 181.939 198.438C182.323 198.223 182.676 197.962 183.04 197.729C183.331 197.479 183.687 197.305 184.071 197.225C184.422 197.152 184.788 197.167 185.131 197.266C185.475 197.366 185.787 197.548 186.036 197.794C186.421 198.144 186.906 198.376 187.431 198.463C187.956 198.549 188.496 198.485 188.982 198.279C189.773 197.801 190.412 197.127 190.829 196.33C190.417 196.507 190.073 196.768 189.709 197.001V197.039ZM220.73 233.487C220.455 233.74 220.117 233.922 219.748 234.018C219.404 234.107 219.042 234.109 218.698 234.024C218.353 233.939 218.038 233.77 217.783 233.533C217.411 233.165 216.93 232.914 216.403 232.812C215.877 232.71 215.33 232.764 214.836 232.965C213.854 233.375 213.461 234.214 212.95 234.886C213.343 234.662 213.687 234.41 214.06 234.177C214.333 233.929 214.673 233.758 215.043 233.683C215.393 233.606 215.758 233.617 216.103 233.716C216.447 233.814 216.759 233.995 217.007 234.242C217.391 234.594 217.877 234.828 218.402 234.915C218.928 235.001 219.468 234.936 219.954 234.727C220.745 234.245 221.383 233.568 221.801 232.769C221.447 232.955 221.103 233.207 220.73 233.449V233.487ZM214.345 121.885C214.236 122.297 214.15 122.714 214.09 123.135C214.078 123.507 213.966 123.869 213.766 124.189C213.584 124.47 213.33 124.703 213.027 124.866C212.725 125.029 212.384 125.117 212.037 125.122C211.51 125.117 210.994 125.26 210.553 125.534C210.113 125.808 209.767 126.2 209.561 126.66C209.323 127.528 209.361 128.443 209.669 129.29C209.778 128.88 209.827 128.46 209.915 128.05C209.937 127.68 210.062 127.323 210.278 127.015C210.466 126.73 210.727 126.495 211.036 126.332C211.345 126.169 211.693 126.083 212.047 126.082C212.578 126.078 213.095 125.92 213.531 125.631C213.966 125.341 214.298 124.932 214.483 124.459C214.688 123.593 214.64 122.69 214.345 121.848V121.885ZM240.042 214.647C239.934 215.067 239.875 215.487 239.796 215.888C239.787 216.263 239.675 216.629 239.472 216.951C239.289 217.233 239.034 217.467 238.73 217.63C238.425 217.793 238.083 217.88 237.733 217.883C237.208 217.884 236.694 218.029 236.254 218.302C235.814 218.576 235.468 218.965 235.258 219.422C235.02 220.287 235.057 221.199 235.366 222.043C235.484 221.633 235.533 221.222 235.622 220.812C235.637 220.44 235.759 220.078 235.975 219.767C236.165 219.481 236.429 219.245 236.742 219.081C237.055 218.918 237.406 218.833 237.763 218.835C238.291 218.827 238.804 218.667 239.235 218.378C239.666 218.088 239.995 217.682 240.179 217.212C240.385 216.349 240.337 215.449 240.042 214.61V214.647ZM235.73 159.826C235.62 160.237 235.535 160.655 235.474 161.075C235.459 161.447 235.348 161.809 235.15 162.129C234.969 162.411 234.715 162.644 234.412 162.808C234.11 162.971 233.769 163.058 233.421 163.062C232.893 163.055 232.375 163.199 231.933 163.475C231.492 163.751 231.148 164.147 230.946 164.61C230.698 165.474 230.736 166.389 231.054 167.231C231.162 166.811 231.211 166.401 231.299 165.981C231.321 165.613 231.443 165.256 231.653 164.946C231.842 164.66 232.104 164.424 232.415 164.261C232.726 164.098 233.076 164.013 233.431 164.013C233.962 164.006 234.478 163.848 234.913 163.558C235.347 163.269 235.68 162.862 235.867 162.39C236.061 161.539 236.014 160.654 235.73 159.826ZM208.53 173.564C208.422 173.983 208.373 174.403 208.275 174.813C208.269 175.185 208.16 175.548 207.96 175.867C207.78 176.15 207.526 176.384 207.223 176.547C206.921 176.71 206.579 176.797 206.231 176.8C205.703 176.799 205.186 176.945 204.744 177.22C204.303 177.496 203.956 177.888 203.746 178.348C203.508 179.213 203.546 180.125 203.854 180.969C203.972 180.559 204.031 180.139 204.11 179.719C204.13 179.351 204.252 178.993 204.463 178.684C204.653 178.397 204.917 178.161 205.23 177.998C205.543 177.835 205.894 177.75 206.251 177.751C206.78 177.741 207.293 177.581 207.726 177.292C208.158 177.003 208.489 176.598 208.677 176.128C208.854 175.273 208.789 174.388 208.491 173.564H208.53ZM149.396 233.823C149.288 234.233 149.239 234.653 149.151 235.063C149.14 235.438 149.029 235.804 148.827 236.126C148.644 236.407 148.39 236.639 148.088 236.802C147.785 236.965 147.445 237.053 147.098 237.059C146.571 237.054 146.055 237.198 145.614 237.472C145.173 237.746 144.828 238.138 144.622 238.598C144.374 239.461 144.412 240.376 144.73 241.219C144.838 240.808 144.897 240.388 144.976 239.969C144.996 239.6 145.118 239.243 145.33 238.933C145.52 238.647 145.784 238.411 146.096 238.247C146.409 238.084 146.76 237.999 147.117 238.001C147.649 237.993 148.166 237.833 148.601 237.542C149.036 237.251 149.368 236.842 149.553 236.369C149.731 235.519 149.663 234.639 149.357 233.823H149.396ZM168.482 146.946C168.374 147.356 168.315 147.776 168.237 148.186C168.224 148.561 168.113 148.926 167.912 149.249C167.728 149.531 167.472 149.763 167.168 149.926C166.865 150.089 166.523 150.177 166.174 150.182C165.649 150.18 165.135 150.325 164.697 150.599C164.258 150.873 163.915 151.263 163.708 151.721C163.46 152.587 163.498 153.505 163.816 154.351C163.924 153.941 163.973 153.521 164.062 153.111C164.085 152.588 164.319 152.093 164.716 151.73C165.113 151.367 165.642 151.163 166.193 151.161C166.724 151.153 167.239 150.994 167.674 150.705C168.108 150.416 168.441 150.009 168.629 149.538C168.82 148.674 168.755 147.777 168.443 146.946H168.482ZM168.482 183.319C168.374 183.739 168.315 184.159 168.237 184.56C168.227 184.935 168.116 185.301 167.912 185.623C167.729 185.905 167.474 186.139 167.17 186.302C166.866 186.465 166.523 186.553 166.174 186.556C165.649 186.553 165.135 186.697 164.696 186.971C164.257 187.245 163.914 187.636 163.708 188.094C163.46 188.958 163.497 189.873 163.816 190.715C163.924 190.314 163.973 189.894 164.062 189.475C164.078 189.106 164.201 188.748 164.415 188.439C164.604 188.153 164.866 187.918 165.177 187.755C165.488 187.591 165.838 187.506 166.193 187.507C166.725 187.499 167.242 187.339 167.677 187.048C168.112 186.757 168.444 186.348 168.629 185.875C168.818 185.014 168.753 184.12 168.443 183.291L168.482 183.319ZM199.267 214.638C199.16 215.047 199.075 215.461 199.012 215.878C198.998 216.253 198.886 216.618 198.687 216.941C198.505 217.225 198.25 217.459 197.946 217.622C197.641 217.785 197.298 217.872 196.949 217.874C196.424 217.872 195.911 218.017 195.472 218.291C195.034 218.565 194.69 218.955 194.483 219.413C194.235 220.276 194.273 221.191 194.591 222.034C194.699 221.623 194.749 221.213 194.847 220.803C194.854 220.43 194.973 220.068 195.191 219.758C195.379 219.472 195.641 219.236 195.952 219.073C196.263 218.91 196.613 218.825 196.968 218.825C197.499 218.819 198.015 218.66 198.45 218.371C198.885 218.081 199.217 217.674 199.405 217.203C199.591 216.339 199.53 215.443 199.228 214.61L199.267 214.638ZM234.541 138.57C234.226 138.455 233.889 138.402 233.552 138.413C233.214 138.424 232.883 138.5 232.576 138.636C231.786 139.114 231.147 139.788 230.73 140.585C231.123 140.37 231.466 140.109 231.83 139.876C232.107 139.626 232.444 139.443 232.812 139.345C233.156 139.257 233.518 139.255 233.862 139.34C234.206 139.425 234.522 139.594 234.777 139.83C235.22 140.247 235.797 140.513 236.417 140.585C235.73 139.885 235.13 139.205 234.502 138.542L234.541 138.57ZM191.409 135.474C191.131 135.716 190.793 135.886 190.426 135.968C190.075 136.039 189.71 136.024 189.367 135.925C189.023 135.825 188.712 135.644 188.462 135.399C188.079 135.047 187.592 134.813 187.066 134.728C186.54 134.643 185.999 134.711 185.515 134.924C184.725 135.398 184.086 136.069 183.668 136.864C184.061 136.649 184.405 136.388 184.768 136.155C185.048 135.908 185.384 135.726 185.751 135.623C186.095 135.538 186.456 135.538 186.799 135.623C187.143 135.708 187.459 135.875 187.715 136.108C188.087 136.476 188.569 136.728 189.095 136.83C189.622 136.931 190.168 136.878 190.662 136.677C191.644 136.267 192.037 135.437 192.548 134.756C192.077 134.942 191.743 135.204 191.369 135.446L191.409 135.474Z" fill="white"/>
<path d="M240.857 192.385C239.336 192.31 237.811 192.31 236.29 192.385C234.777 192.431 233.264 192.515 231.751 192.655C228.733 192.937 225.737 193.408 222.783 194.063C216.951 195.374 211.277 197.249 205.848 199.659C202.735 200.999 199.751 202.594 196.929 204.425C196.917 204.428 196.906 204.434 196.897 204.441C196.888 204.449 196.88 204.459 196.876 204.469C196.871 204.48 196.869 204.492 196.87 204.504C196.871 204.515 196.875 204.527 196.882 204.537C196.888 204.547 196.897 204.555 196.907 204.561C196.918 204.567 196.93 204.571 196.942 204.572C196.954 204.573 196.967 204.571 196.978 204.567C196.99 204.562 197 204.555 197.008 204.546C202.395 202.102 207.928 199.959 213.579 198.13C219.226 196.421 224.985 195.066 230.818 194.073C232.488 193.784 234.158 193.504 235.838 193.261C237.517 193.019 239.177 192.898 240.838 192.655C240.87 192.65 240.899 192.634 240.921 192.611C240.943 192.588 240.956 192.558 240.958 192.527C240.96 192.496 240.952 192.465 240.933 192.439C240.915 192.414 240.888 192.394 240.857 192.385Z" fill="#263238"/>
<path d="M239.364 198.13C236.068 197.566 232.724 197.294 229.374 197.318C226.041 197.285 222.712 197.557 219.434 198.13C219.316 198.13 219.355 198.307 219.434 198.316C222.744 198.419 226.064 198.382 229.374 198.4C232.685 198.419 235.995 198.494 239.295 198.456C239.521 198.456 239.561 198.13 239.364 198.13Z" fill="#263238"/>
<path d="M190.81 125.271C188.57 135.8 151.105 196.153 140.713 207.904C140.713 207.904 88.4551 228.59 88.4551 202.989C88.4551 189.615 139.534 149.436 165.692 128.181C176.419 119.507 193.491 112.437 190.81 125.271Z" fill="#D3766A"/>
<path d="M130.438 151.245L168.138 168.331C168.138 168.331 187.028 142.693 192.853 129.561C198.442 116.979 194.817 108.11 173.207 121.708C146.548 138.44 130.438 151.245 130.438 151.245Z" fill="#FF407D"/>
<path d="M141.263 149.109C141.636 148.876 141.98 148.615 142.363 148.391C141.953 149.192 141.317 149.87 140.526 150.35C140.041 150.561 139.499 150.628 138.973 150.541C138.447 150.455 137.961 150.219 137.579 149.865C137.332 149.616 137.021 149.434 136.676 149.335C136.331 149.237 135.965 149.227 135.615 149.305C135.247 149.385 134.909 149.556 134.632 149.8C134.259 150.042 133.915 150.303 133.532 150.508C134.033 149.837 134.397 149.007 135.408 148.587C135.896 148.397 136.433 148.349 136.949 148.45C137.465 148.552 137.938 148.798 138.306 149.156C138.562 149.391 138.877 149.559 139.221 149.644C139.565 149.729 139.927 149.728 140.271 149.641C140.643 149.546 140.985 149.364 141.263 149.109Z" fill="#FF407D"/>
<path d="M164.455 131.492C163.568 131.794 162.604 131.83 161.695 131.594C161.346 131.461 161.034 131.255 160.78 130.992C160.527 130.729 160.339 130.415 160.231 130.074C160.526 129.869 160.82 129.673 161.125 129.486C161.178 129.954 161.405 130.388 161.765 130.711C162.125 131.035 162.595 131.225 163.089 131.249C163.581 131.342 164.023 131.389 164.455 131.492Z" fill="#FF407D"/>
<path d="M168.443 146.946C168.746 147.786 168.797 148.69 168.59 149.557C168.402 150.028 168.069 150.434 167.634 150.724C167.2 151.013 166.685 151.172 166.154 151.18C165.603 151.182 165.074 151.386 164.677 151.749C164.28 152.112 164.045 152.606 164.023 153.129C163.934 153.54 163.885 153.959 163.777 154.37C163.459 153.524 163.421 152.606 163.669 151.74C163.875 151.281 164.219 150.891 164.658 150.618C165.096 150.344 165.61 150.199 166.134 150.201C166.483 150.196 166.825 150.108 167.129 149.945C167.433 149.782 167.689 149.549 167.873 149.268C168.074 148.945 168.185 148.579 168.197 148.205C168.276 147.766 168.335 147.356 168.443 146.946Z" fill="#FF407D"/>
<path d="M189.562 135.95C189.405 136.229 189.248 136.509 189.071 136.798C188.536 136.703 188.045 136.452 187.666 136.08C187.409 135.847 187.094 135.68 186.75 135.595C186.406 135.51 186.045 135.51 185.702 135.595C185.335 135.698 184.999 135.88 184.719 136.127C184.356 136.36 184.012 136.621 183.619 136.836C184.037 136.041 184.675 135.37 185.466 134.896C185.95 134.683 186.491 134.615 187.017 134.7C187.543 134.785 188.03 135.019 188.413 135.371C188.716 135.682 189.121 135.886 189.562 135.95Z" fill="#FF407D"/>
<path d="M163.139 131.249C162.644 131.225 162.174 131.035 161.814 130.711C161.454 130.388 161.227 129.954 161.174 129.486C160.87 129.673 160.575 129.869 160.28 130.074C160.388 130.415 160.576 130.729 160.83 130.992C161.083 131.255 161.395 131.461 161.744 131.594C162.653 131.83 163.617 131.794 164.504 131.492C164.023 131.389 163.581 131.342 163.139 131.249ZM141.263 149.109C140.988 149.362 140.65 149.545 140.281 149.641C139.937 149.728 139.575 149.729 139.231 149.644C138.887 149.559 138.572 149.391 138.316 149.156C137.948 148.798 137.475 148.552 136.959 148.45C136.443 148.349 135.906 148.397 135.418 148.587C134.436 149.007 134.043 149.837 133.542 150.508C133.925 150.303 134.269 150.042 134.642 149.8C134.919 149.556 135.257 149.385 135.625 149.305C135.975 149.227 136.341 149.237 136.686 149.335C137.031 149.434 137.342 149.616 137.589 149.865C137.971 150.219 138.457 150.455 138.983 150.541C139.51 150.628 140.051 150.561 140.536 150.35C141.327 149.87 141.963 149.192 142.373 148.391C141.98 148.615 141.636 148.876 141.263 149.109ZM168.443 146.946C168.335 147.356 168.276 147.776 168.197 148.186C168.185 148.561 168.074 148.926 167.873 149.249C167.689 149.531 167.433 149.763 167.129 149.926C166.826 150.089 166.483 150.177 166.135 150.182C165.61 150.18 165.096 150.325 164.658 150.599C164.219 150.873 163.875 151.263 163.669 151.721C163.421 152.587 163.459 153.505 163.777 154.351C163.885 153.941 163.934 153.521 164.023 153.11C164.045 152.588 164.28 152.093 164.677 151.73C165.074 151.367 165.603 151.163 166.154 151.161C166.685 151.153 167.2 150.994 167.635 150.705C168.069 150.416 168.402 150.009 168.59 149.538C168.793 148.678 168.742 147.781 168.443 146.946ZM188.413 135.371C188.03 135.019 187.543 134.785 187.017 134.7C186.491 134.615 185.95 134.683 185.466 134.896C184.676 135.37 184.037 136.041 183.619 136.836C184.012 136.621 184.356 136.36 184.719 136.127C184.999 135.88 185.335 135.698 185.702 135.595C186.046 135.51 186.407 135.51 186.751 135.595C187.094 135.68 187.41 135.847 187.666 136.08C188.045 136.452 188.536 136.703 189.071 136.798C189.248 136.509 189.405 136.229 189.562 135.95C189.121 135.886 188.716 135.682 188.413 135.371Z" fill="white"/>
<path d="M141.263 147.263C143.871 148.071 146.424 149.034 148.905 150.145C151.41 151.171 153.895 152.243 156.38 153.325C158.866 154.407 161.38 155.498 163.856 156.645C166.331 157.792 168.846 159.117 171.341 160.376C171.365 160.396 171.382 160.424 171.389 160.454C171.395 160.485 171.391 160.516 171.376 160.544C171.361 160.572 171.337 160.594 171.308 160.608C171.278 160.621 171.245 160.625 171.213 160.618C168.669 159.686 166.095 158.753 163.581 157.727C161.066 156.701 158.591 155.619 156.105 154.547C153.62 153.474 151.106 152.355 148.64 151.217C146.066 150.129 143.569 148.882 141.165 147.487C141.133 147.474 141.109 147.451 141.096 147.421C141.083 147.391 141.083 147.358 141.096 147.328C141.109 147.298 141.134 147.275 141.165 147.263C141.197 147.25 141.232 147.25 141.263 147.263Z" fill="#263238"/>
<path d="M184.297 149.371C183.23 150.341 182.156 151.301 181.075 152.252C180.545 152.728 180.034 153.185 179.513 153.689L178.953 154.211C180.044 152.579 181.114 150.928 182.146 149.259C183.354 147.328 184.464 145.341 185.584 143.364C185.592 143.351 185.593 143.335 185.589 143.32C185.584 143.305 185.574 143.292 185.559 143.285C185.545 143.278 185.528 143.276 185.512 143.28C185.497 143.285 185.484 143.295 185.476 143.308C180.957 149.837 176.458 156.365 171.871 162.819C170.604 164.61 169.317 166.392 168.178 168.266L167.451 168.108C167.362 168.108 167.303 168.21 167.392 168.247L168.178 168.611C168.209 168.633 168.247 168.644 168.286 168.644C168.324 168.644 168.362 168.633 168.394 168.611C170.988 165.634 173.377 162.499 175.545 159.229C176.54 157.811 177.523 156.39 178.492 154.966L179.268 154.323C179.877 153.81 180.456 153.26 181.036 152.728C182.185 151.684 183.285 150.574 184.395 149.473C184.405 149.389 184.336 149.333 184.297 149.371Z" fill="#263238"/>
<path d="M163.296 228.049C166.508 233.282 152.333 277.583 144.504 272.649C107.718 249.445 91.1465 216.69 89.2311 208.604C86.7262 197.999 97.1876 188.738 104.653 188.169C115.478 187.339 160.093 222.864 163.296 228.049Z" fill="#D3766A"/>
<path d="M124.495 196.526C141.941 204.649 156.459 221.288 156.498 221.306C156.783 221.521 156.498 222.342 156.39 222.239C153.375 220.085 136.057 204.304 124.24 197.057C124.122 196.973 124.377 196.47 124.495 196.526Z" fill="#263238"/>
<path d="M162.48 284.699C170.211 286.48 178.924 289.12 187.195 288.168C195.466 287.217 201.241 276.165 200.947 273.19C200.652 270.215 195.515 251.963 187.195 252.765C178.875 253.567 185.427 267.333 185.289 268.993C185.151 270.653 185.063 272.78 183.482 272.78C181.9 272.78 153.217 263.089 153.217 263.089L162.48 284.699Z" fill="#D3766A"/>
<path d="M162.893 283.561C163.364 283.514 186.468 289.689 194.739 288.747C203.009 287.805 208.776 276.743 208.491 273.768C208.206 270.793 203.059 252.532 194.739 253.334C186.419 254.136 192.98 267.911 192.843 269.571C192.705 271.231 192.617 273.358 191.035 273.302C189.454 273.246 160.761 263.612 160.761 263.612L162.893 283.561Z" fill="#D3766A"/>
<path d="M192.037 254.602C191.144 255.945 191.173 257.829 191.153 259.387C191.155 261.084 191.437 262.771 191.988 264.386C192.6 265.754 193.092 267.167 193.462 268.611C193.605 270.069 193.359 271.538 192.745 272.882C192.224 274.048 190.967 273.815 189.886 273.544C188.284 273.134 186.71 272.632 185.171 272.043C183.511 271.455 181.861 270.821 180.201 270.177C178.465 269.594 176.769 268.909 175.122 268.126C175.098 268.111 175.079 268.089 175.07 268.064C175.06 268.038 175.059 268.01 175.069 267.984C175.078 267.958 175.096 267.936 175.12 267.921C175.144 267.906 175.172 267.899 175.201 267.902C176.693 268.29 178.162 268.754 179.602 269.291C181.252 269.842 182.902 270.383 184.513 270.896C186.124 271.409 187.588 271.94 189.15 272.406C189.855 272.71 190.626 272.85 191.399 272.817C192.018 272.621 192.175 271.11 192.263 270.616C192.455 269.168 192.195 267.7 191.517 266.391C190.933 265.027 190.492 263.612 190.201 262.166C189.908 260.802 189.875 259.4 190.102 258.025C190.493 256.778 191.037 255.579 191.723 254.453C191.851 254.313 192.136 254.453 192.037 254.602Z" fill="#263238"/>
<path d="M134.387 265.44C134.387 265.44 159.484 283.104 164.691 286.592C175.132 293.587 217.214 305.357 222.901 305.376C228.588 305.395 229.453 294.249 200.819 285.501C185.721 280.903 182.313 273.283 182.156 268.909C181.998 264.535 185.476 255.982 193.216 255.432C200.957 254.882 207.096 265.094 214.316 265.607C221.536 266.12 215.534 254.22 209.768 247.579C204.002 240.939 194.287 235.93 187.362 234.196C180.437 232.461 158.875 226.007 158.875 226.007L134.387 265.44Z" fill="#D3766A"/>
<path d="M203.314 259.685C200.181 257.82 196.585 255.376 192.755 255.609C188.924 255.843 186.478 258.529 184.965 261.765C183.452 265.001 182.745 268.648 183.983 272.089C185.214 275.171 187.356 277.849 190.151 279.802C193.566 282.171 197.325 284.056 201.31 285.398C201.487 285.464 201.369 285.706 201.183 285.65C197.47 284.484 185.967 281.257 182.765 272.211C181.458 268.48 182.293 265.02 183.816 261.681C185.211 258.594 187.401 255.544 191.104 254.901C195.633 254.108 199.945 257.251 203.491 259.564C203.678 259.685 203.461 259.76 203.314 259.685Z" fill="#263238"/>
<path d="M191.468 117.576C191.929 119.442 201.173 128.321 210.18 126.698C214.659 125.896 213.471 115.832 213.471 115.832L217.518 98.7553L194.925 85.1106C194.925 85.1106 191.281 116.774 191.468 117.576Z" fill="#D3766A"/>
<path d="M193.688 96.2372C195.496 100.484 198.205 104.332 201.648 107.541C205.09 110.75 209.192 113.252 213.697 114.89L217.528 98.7647L194.935 85.1199C194.935 85.1199 194.385 90.1376 193.688 96.2372Z" fill="#263238"/>
<path d="M241.26 78.7499C240.16 106.851 220.416 109.117 213.923 108.595C208.029 108.11 188.039 105.797 187.401 77.1084C186.762 48.4199 201.654 40.511 215.19 40.9121C228.726 41.3131 242.38 50.0801 241.26 78.7499Z" fill="#D3766A"/>
<path d="M235.16 74.4037C234.493 74.2026 233.837 73.9692 233.195 73.7042C232.473 73.5518 231.825 73.1782 231.349 72.641C231.233 72.4441 231.189 72.2164 231.225 71.9935C231.261 71.7707 231.373 71.5654 231.545 71.4099C231.932 71.1476 232.386 70.9892 232.86 70.9514C233.333 70.9137 233.809 70.9979 234.236 71.1953C235.166 71.4659 235.957 72.054 236.456 72.8461C236.557 73.0323 236.599 73.242 236.577 73.4502C236.556 73.6585 236.472 73.8564 236.335 74.0206C236.199 74.1847 236.015 74.3081 235.807 74.376C235.598 74.4439 235.374 74.4535 235.16 74.4037Z" fill="#263238"/>
<path d="M214.846 73.7975C215.529 73.9178 216.217 74.0049 216.909 74.0586C217.622 74.2495 218.381 74.2135 219.07 73.956C219.27 73.8335 219.421 73.652 219.501 73.4396C219.581 73.2271 219.585 72.9956 219.512 72.7809C219.301 72.3778 218.98 72.0355 218.583 71.7896C218.186 71.5436 217.727 71.4029 217.253 71.3819C216.299 71.1967 215.306 71.3599 214.473 71.8389C214.286 71.9555 214.14 72.1215 214.052 72.3165C213.964 72.5114 213.938 72.7266 213.978 72.9353C214.018 73.1439 214.121 73.3369 214.276 73.4902C214.43 73.6435 214.628 73.7504 214.846 73.7975Z" fill="#263238"/>
<path d="M218.441 79.897C218.441 79.8224 218.274 79.9623 218.265 80.0463C218.068 81.9955 217.498 84.1873 215.563 84.607C215.504 84.607 215.504 84.7189 215.563 84.7189C217.862 84.6909 218.589 81.7624 218.441 79.897Z" fill="#263238"/>
<path d="M216.889 77.6493C213.638 77.0151 212.548 83.2453 215.553 83.8235C218.559 84.4018 219.62 78.1809 216.889 77.6493Z" fill="#263238"/>
<path d="M215.544 77.8172C214.915 78.0784 214.247 78.61 213.579 78.5727C212.911 78.5354 212.282 77.7706 211.87 77.0618C211.87 76.9872 211.762 77.0618 211.752 77.1177C211.516 78.3022 211.752 79.5986 213.098 79.9903C214.443 80.382 215.367 79.4401 215.887 78.2836C215.946 78.0317 215.799 77.668 215.544 77.8172Z" fill="#263238"/>
<path d="M230.101 80.9043C230.101 80.8297 230.239 81.0255 230.219 81.1002C229.806 82.9655 229.659 85.2691 231.378 86.2111C231.427 86.2111 231.378 86.3417 231.378 86.323C229.158 85.6515 229.374 82.6577 230.101 80.9043Z" fill="#263238"/>
<path d="M232.282 79.1975C235.582 79.5053 234.688 85.7261 231.633 85.465C228.579 85.2038 229.512 78.9364 232.282 79.1975Z" fill="#263238"/>
<path d="M233.588 79.7852C234.069 80.1862 234.492 80.8484 235.111 80.9696C235.73 81.0909 236.447 80.494 237.006 79.9064C237.065 79.8505 237.105 79.9064 237.095 79.9903C236.957 81.1935 236.368 82.3779 235.13 82.4526C233.893 82.5272 233.333 81.3893 233.166 80.1676C233.176 79.9344 233.402 79.6266 233.588 79.7852Z" fill="#263238"/>
<path d="M216.762 94.9221C217.145 95.4631 217.489 96.1812 218.206 96.3864C218.953 96.5401 219.727 96.5401 220.475 96.3864C220.492 96.379 220.511 96.3783 220.528 96.3844C220.546 96.3905 220.56 96.403 220.568 96.4191C220.576 96.4351 220.577 96.4535 220.57 96.4701C220.564 96.4867 220.551 96.5002 220.534 96.5077C220.162 96.8236 219.708 97.0381 219.218 97.1284C218.729 97.2187 218.223 97.1815 217.754 97.0206C217.366 96.8372 217.044 96.5488 216.829 96.1919C216.614 95.835 216.516 95.4256 216.546 95.0154C216.546 94.8475 216.703 94.8382 216.762 94.9221Z" fill="#263238"/>
<path d="M226.398 89.1956C226.398 89.1956 226.172 92.7304 225.946 94.0921C225.946 94.2227 222.263 91.7791 217.98 91.2941C217.813 91.2941 218.098 90.7625 218.255 90.7718C220.691 90.7326 223.084 91.3819 225.131 92.6371C225.288 92.2734 225.042 87.5915 225.268 87.6101C226.367 87.8646 227.425 88.2599 228.412 88.7853C228.706 82.6577 227.96 76.5302 228.353 70.4306C228.363 70.3894 228.387 70.3526 228.422 70.3262C228.457 70.2999 228.5 70.2855 228.544 70.2855C228.589 70.2855 228.632 70.2999 228.667 70.3262C228.702 70.3526 228.726 70.3894 228.736 70.4306C229.993 76.7913 229.816 83.8609 229.718 90.1936C229.718 90.9677 226.938 89.5127 226.398 89.1956Z" fill="#263238"/>
<path d="M187.656 78.4701C189.741 77.99 191.659 77.0046 193.222 75.6101C194.785 74.2157 195.941 72.4599 196.576 70.5145C222.724 69.2368 230.956 53.6055 230.956 53.6055C236.349 66.4575 240.897 68.528 241.692 70.4959C241.692 70.4959 243.549 59.1921 239.344 50.7142C237.032 45.9627 233.121 42.0759 228.227 39.665C223.334 37.2541 217.735 36.4559 212.312 37.3959C204.326 38.5804 197.764 45.3421 197.764 45.3421C197.764 45.3421 189.13 46.4334 185.77 53.1485C180.112 64.4243 187.656 78.4701 187.656 78.4701Z" fill="#263238"/>
<path d="M231.309 52.6355C230.449 55.8927 228.743 58.8938 226.349 61.3652C223.954 63.8579 221.067 65.8797 217.852 67.3155L215.396 68.2482C214.561 68.5373 213.697 68.7238 212.862 68.9756C211.165 69.4302 209.435 69.7607 207.685 69.9642C205.937 70.1508 204.178 70.1694 202.43 70.2813C200.681 70.1787 198.933 70.1041 197.194 69.9736C198.943 69.8803 200.681 69.8523 202.41 69.787C204.139 69.5819 205.868 69.4699 207.567 69.1901C210.96 68.6842 214.264 67.7429 217.39 66.3922C220.51 65.0265 223.34 63.1299 225.74 60.7962C228.176 58.4751 230.073 55.6952 231.309 52.6355Z" fill="#263238"/>
<path d="M214.227 88.9345C212.638 88.5969 211.181 87.8429 210.021 86.758C208.86 85.6731 208.044 84.3009 207.664 82.7974C207.285 81.2939 207.357 79.7194 207.872 78.2529C208.388 76.7864 209.327 75.4867 210.582 74.5016C211.837 73.5165 213.358 72.8855 214.972 72.6802C216.586 72.475 218.228 72.7038 219.712 73.3407C221.196 73.9776 222.462 74.9969 223.366 76.2829C224.27 77.5688 224.776 79.0698 224.826 80.6152C224.867 81.8745 224.604 83.1261 224.058 84.2742C223.511 85.4223 222.695 86.4365 221.673 87.2393C220.65 88.0421 219.447 88.6121 218.157 88.906C216.866 89.1998 215.522 89.2095 214.227 88.9345ZM217.764 73.8721C217.151 73.7456 216.524 73.6892 215.897 73.7042C213.981 73.7593 212.159 74.5058 210.803 75.7915C209.446 77.0773 208.657 78.8058 208.595 80.6249C208.534 82.444 209.205 84.2169 210.472 85.5827C211.739 86.9485 213.507 87.8043 215.415 87.976C217.323 88.1476 219.229 87.6222 220.743 86.5066C222.258 85.3911 223.268 83.7693 223.567 81.9716C223.867 80.1739 223.433 78.3355 222.355 76.8307C221.276 75.3258 219.635 74.2678 217.764 73.8721Z" fill="#FF407D"/>
<path d="M234.119 90.7718C230.867 90.0816 228.657 86.295 229.119 82.0048C229.296 79.9405 230.155 77.982 231.575 76.4089C232.139 75.7022 232.886 75.1459 233.744 74.794C234.601 74.4421 235.54 74.3065 236.469 74.4003C237.397 74.4941 238.285 74.8142 239.045 75.3295C239.806 75.8448 240.413 76.5379 240.808 77.3415C241.852 79.1508 242.275 81.2248 242.016 83.2732C241.525 87.8059 238.234 91.2101 234.679 90.8651C234.49 90.8431 234.303 90.812 234.119 90.7718ZM236.771 75.5788C236.629 75.5473 236.484 75.5255 236.339 75.5135C235.591 75.4684 234.843 75.5958 234.159 75.8849C233.475 76.174 232.874 76.6162 232.409 77.1737C231.16 78.5649 230.404 80.2944 230.248 82.1167C229.826 86.0432 231.84 89.4754 234.767 89.7552C237.694 90.035 240.405 87.0785 240.828 83.152C241.061 81.3364 240.69 79.497 239.767 77.8918C239.464 77.3298 239.041 76.8338 238.526 76.4355C238.01 76.0373 237.412 75.7455 236.771 75.5788Z" fill="#FF407D"/>
<path d="M224.433 81.5478L223.775 80.6152C225.199 79.6825 228.392 78.582 230.278 80.9416L229.345 81.6038C227.665 79.5053 224.561 81.4546 224.433 81.5478Z" fill="#FF407D"/>
<path d="M185.633 79.897L184.651 79.2908C184.945 78.8618 187.598 75.0752 190.26 74.926C192.715 74.7954 208.088 77.724 208.736 77.8172L208.51 78.8991C204.1 78.0597 192.224 75.9239 190.328 76.0359C188.58 76.1291 186.33 78.8525 185.633 79.897Z" fill="#FF407D"/>
<path d="M192.509 77.752C192.509 77.752 187.597 67.8658 183 69.3581C178.403 70.8503 180.947 84.4484 185.584 87.0132C186.154 87.3801 186.796 87.6337 187.472 87.7588C188.148 87.8838 188.844 87.8778 189.518 87.741C190.191 87.6042 190.829 87.3395 191.392 86.9628C191.955 86.5861 192.432 86.1052 192.794 85.549L192.509 77.752Z" fill="#D3766A"/>
<path d="M183.855 73.2565C183.776 73.2565 183.737 73.3311 183.806 73.3778C187.037 75.2431 188.305 78.6286 189.012 82.0048C188.197 80.6152 186.92 79.7198 184.984 80.6059C184.886 80.6059 184.984 80.8017 185.043 80.8017C185.686 80.7151 186.342 80.8203 186.919 81.1026C187.496 81.385 187.966 81.8306 188.265 82.3779C188.76 83.2962 189.148 84.2624 189.424 85.2598C189.532 85.5862 190.122 85.5209 190.063 85.1572C190.063 85.1572 190.063 85.1106 190.063 85.0826C190.898 80.895 188.58 74.4503 183.855 73.2565Z" fill="#263238"/>
<path d="M322.515 177.789C327.632 190.911 319.303 208.827 305.678 231.407C302.427 236.798 257.595 207.68 260.424 201.609C263.97 194.026 268.921 181.146 270.925 179.682C287.791 167.399 319.705 170.588 322.515 177.789Z" fill="#D3766A"/>
<path d="M216.999 297.144L223.264 299.599L228.275 288.073L222.01 285.618L216.999 297.144Z" fill="#A6A6A6"/>
<path d="M219.695 298.213L220.53 298.54L223.037 292.773L222.202 292.446L219.695 298.213Z" fill="#FF407D"/>
<path d="M248.814 232.396C273.106 241.918 261.76 259.993 255.591 274.188C249.423 288.383 240.081 294.259 224.561 288.178C209.041 282.097 206.801 271.67 212.97 257.484C219.139 243.298 224.532 222.882 248.814 232.396Z" fill="#FF407D"/>
<path d="M243.588 244.399C260.925 251.189 252.831 264.097 248.421 274.244C244.01 284.391 237.36 288.597 226.29 284.214C215.219 279.83 213.618 272.425 218.019 262.306C222.42 252.187 226.27 237.609 243.588 244.399Z" fill="#263238"/>
<path d="M218.708 271.096L241.425 279.999L251.71 256.343L228.992 247.44L218.708 271.096Z" fill="#455A64"/>
<path d="M243.922 241.638L246.103 236.63C240.061 234.261 233.952 235.697 233.195 237.432L243.922 241.638Z" fill="#263238"/>
<path d="M242.458 237.105L241.437 239.456L239.344 237.264L242.458 237.105Z" fill="#EBEBEB"/>
<path d="M245.425 242.226L247.605 237.217C253.637 239.586 256.918 244.679 256.151 246.432L245.425 242.226Z" fill="#263238"/>
<path d="M249.835 239.997L248.814 242.347L251.918 242.188L249.835 239.997Z" fill="#EBEBEB"/>
<path d="M238.529 262.754C238.767 262.206 239.15 261.727 239.641 261.362C240.132 260.997 240.714 260.76 241.331 260.673C241.948 260.585 242.577 260.651 243.159 260.864C243.741 261.077 244.254 261.43 244.65 261.888C245.045 262.345 245.309 262.893 245.415 263.476C245.521 264.059 245.466 264.659 245.255 265.216C245.044 265.773 244.684 266.268 244.211 266.654C243.739 267.04 243.168 267.303 242.557 267.417C242.696 267.912 242.658 268.437 242.449 268.909C242.178 269.463 241.692 269.896 241.092 270.118C240.493 270.34 239.827 270.334 239.232 270.1C238.638 269.867 238.161 269.424 237.902 268.865C237.643 268.306 237.621 267.674 237.842 267.1C238.046 266.626 238.408 266.23 238.873 265.971C238.544 265.502 238.341 264.964 238.281 264.403C238.221 263.842 238.306 263.276 238.529 262.754ZM240.052 263.35C239.853 263.806 239.851 264.317 240.048 264.773C240.245 265.23 240.624 265.593 241.103 265.785C241.345 265.907 241.611 265.979 241.884 265.997C242.157 266.016 242.432 265.98 242.689 265.892C242.947 265.804 243.182 265.665 243.38 265.486C243.578 265.306 243.735 265.089 243.839 264.849C243.944 264.609 243.994 264.35 243.988 264.09C243.981 263.83 243.917 263.574 243.8 263.339C243.682 263.104 243.515 262.895 243.308 262.725C243.1 262.555 242.858 262.428 242.596 262.352C242.119 262.169 241.585 262.171 241.109 262.358C240.633 262.544 240.254 262.901 240.052 263.35ZM240.926 268.321C240.969 268.224 240.991 268.12 240.991 268.014C240.991 267.909 240.969 267.804 240.927 267.707C240.884 267.61 240.822 267.521 240.743 267.446C240.665 267.372 240.572 267.313 240.469 267.272C240.367 267.232 240.257 267.211 240.146 267.211C240.035 267.211 239.925 267.231 239.822 267.272C239.72 267.312 239.626 267.371 239.548 267.446C239.469 267.52 239.407 267.609 239.364 267.706C239.278 267.903 239.278 268.124 239.364 268.32C239.449 268.517 239.614 268.674 239.821 268.755C240.028 268.837 240.261 268.837 240.468 268.756C240.675 268.674 240.84 268.518 240.926 268.321Z" fill="#263238"/>
<path d="M237.989 257.456C237.681 257.406 237.364 257.461 237.094 257.611C236.825 257.761 236.62 257.997 236.515 258.277C236.715 258.407 236.864 258.597 236.939 258.816C237.014 259.036 237.01 259.272 236.928 259.489L236.879 259.601C236.831 259.721 236.757 259.831 236.662 259.922C236.568 260.014 236.454 260.086 236.329 260.135C236.203 260.183 236.069 260.206 235.934 260.202C235.798 260.199 235.665 260.169 235.543 260.114C234.914 259.872 234.737 259.275 235.042 258.557L235.111 258.407C235.233 258.047 235.431 257.715 235.693 257.429C235.954 257.144 236.274 256.912 236.633 256.747C237.13 256.549 237.685 256.53 238.195 256.691C238.302 256.717 238.393 256.782 238.45 256.873C238.506 256.963 238.522 257.07 238.495 257.172C238.467 257.273 238.399 257.36 238.304 257.413C238.209 257.467 238.096 257.482 237.989 257.456Z" fill="#263238"/>
<path d="M226.889 261.056C226.697 260.624 226.598 260.159 226.598 259.69C226.598 259.22 226.697 258.756 226.889 258.323C227.273 257.458 228 256.772 228.913 256.411C229.366 256.229 229.854 256.135 230.347 256.135C230.839 256.135 231.327 256.229 231.781 256.411C232.227 256.591 232.631 256.853 232.968 257.183C233.306 257.513 233.57 257.904 233.746 258.333C233.792 258.43 233.816 258.536 233.818 258.643C233.819 258.75 233.798 258.856 233.755 258.954C233.711 259.053 233.647 259.142 233.566 259.217C233.485 259.291 233.389 259.349 233.284 259.387C233.074 259.467 232.839 259.467 232.63 259.385C232.42 259.303 232.253 259.146 232.164 258.948C232.065 258.71 231.916 258.493 231.725 258.311C231.534 258.13 231.305 257.988 231.054 257.894C230.809 257.794 230.545 257.743 230.278 257.743C230.011 257.743 229.747 257.794 229.502 257.894C229.005 258.091 228.609 258.467 228.402 258.939C228.294 259.174 228.238 259.428 228.238 259.685C228.238 259.942 228.294 260.196 228.402 260.431C228.502 260.666 228.651 260.878 228.84 261.056C229.029 261.234 229.254 261.374 229.502 261.466C229.749 261.568 230.014 261.62 230.283 261.62C230.552 261.62 230.817 261.568 231.064 261.466C231.272 261.383 231.507 261.381 231.717 261.461C231.927 261.541 232.095 261.698 232.184 261.895C232.184 261.97 232.233 262.054 232.262 262.129C232.292 262.203 232.262 262.175 232.262 262.175C232.255 262.187 232.252 262.199 232.252 262.213C232.252 262.226 232.255 262.239 232.262 262.25C232.26 262.284 232.26 262.318 232.262 262.352C232.242 262.434 232.208 262.513 232.164 262.586L230.258 265.85C230.124 266.045 229.917 266.184 229.679 266.242H229.61H229.561C229.423 266.247 229.286 266.225 229.158 266.176L225.042 264.563C224.939 264.522 224.844 264.463 224.764 264.388C224.685 264.313 224.622 264.224 224.578 264.125C224.535 264.027 224.512 263.922 224.512 263.815C224.512 263.708 224.533 263.603 224.576 263.504C224.618 263.406 224.681 263.316 224.76 263.24C224.839 263.165 224.933 263.105 225.037 263.064C225.14 263.022 225.251 263.001 225.363 263.001C225.476 263 225.587 263.021 225.691 263.061L229.129 264.414L229.865 263.164C229.529 263.121 229.199 263.04 228.883 262.921C227.986 262.573 227.269 261.903 226.889 261.056Z" fill="#263238"/>
<path d="M276.17 197.384C276.17 197.384 257.389 201.385 248.332 206.346C236.211 212.996 228.628 223.47 225.74 228.049C219.689 237.59 211.988 264.647 219.846 268.107C226.928 271.241 233.303 243.205 233.303 243.205C233.303 243.205 221.83 270.774 231.093 273.05C240.356 275.326 245.828 242.394 245.828 242.394C245.828 242.394 234.708 270.961 244.649 271.884C252.153 272.584 258.862 242.972 258.862 242.972C258.862 242.972 249.491 267.594 257.183 268.62C265.68 269.767 273.675 242.841 273.675 242.841C298.37 244.781 304.814 234.447 309.716 224.645C310.58 222.808 276.17 197.384 276.17 197.384Z" fill="#D3766A"/>
<path d="M236.604 233.44C235.131 236.63 233.657 239.848 232.449 243.149C231.241 246.451 230.239 249.799 229.404 253.194C228.209 257.606 227.549 262.134 227.439 266.689C228.245 258.622 232.233 246.731 233.402 243.42C234.571 240.109 235.553 236.77 236.712 233.477C236.722 233.47 236.73 233.461 236.734 233.45C236.739 233.439 236.741 233.427 236.739 233.416C236.737 233.404 236.732 233.393 236.724 233.384C236.716 233.375 236.706 233.368 236.694 233.364C236.683 233.36 236.67 233.359 236.658 233.361C236.646 233.363 236.634 233.369 236.625 233.376C236.616 233.384 236.609 233.394 236.605 233.405C236.602 233.417 236.601 233.429 236.604 233.44Z" fill="#263238"/>
<path d="M249.246 237.217C247.547 241.368 245.71 245.434 244.207 249.659C242.704 253.884 241.692 257.978 240.504 262.268C240.415 262.595 240.631 262.53 240.739 262.203C242.105 257.96 243.686 254.145 245.12 249.911C246.555 245.677 247.782 241.405 249.354 237.255C249.374 237.189 249.266 237.161 249.246 237.217Z" fill="#263238"/>
<path d="M260.709 238.616C257.762 244.837 256.063 251.562 254.55 258.202C254.472 258.538 254.747 258.426 254.835 258.09C256.8 251.562 258.214 246.395 260.935 238.719C260.984 238.588 260.768 238.486 260.709 238.616Z" fill="#263238"/>
<path d="M290.306 173.191C286.652 173.34 273.479 176.278 267.841 184.289C267.792 184.364 267.841 184.476 267.929 184.41C274.078 178.814 286.789 173.75 290.325 173.33C290.34 173.324 290.352 173.312 290.36 173.299C290.367 173.285 290.37 173.269 290.368 173.254C290.366 173.238 290.359 173.224 290.348 173.213C290.336 173.201 290.322 173.194 290.306 173.191Z" fill="#263238"/>
<path d="M95.7731 361.345C122.665 361.345 144.465 358.413 144.465 354.797C144.465 351.181 122.665 348.25 95.7731 348.25C68.8812 348.25 47.0811 351.181 47.0811 354.797C47.0811 358.413 68.8812 361.345 95.7731 361.345Z" fill="#EBEBEB"/>
<path d="M340.068 361.345C366.96 361.345 388.76 358.413 388.76 354.797C388.76 351.181 366.96 348.25 340.068 348.25C313.176 348.25 291.376 351.181 291.376 354.797C291.376 358.413 313.176 361.345 340.068 361.345Z" fill="#EBEBEB"/>
<path d="M412.522 334.298L360.962 334.521L309.391 334.605L206.261 334.764L103.13 334.605L51.5702 334.521L0 334.298L51.5702 334.064L103.13 333.99L206.261 333.831L309.391 333.99L360.962 334.074L412.522 334.298Z" fill="#263238"/>
<path d="M345.402 314.964H319.479V351.887H345.402V314.964Z" fill="#FF407D"/>
<path d="M348.536 305.049H316.346V314.964H348.536V305.049Z" fill="#455A64"/>
<path d="M341.07 325.587H323.811V341.973H341.07V325.587Z" fill="white"/>
<path opacity="0.1" d="M319.479 314.964V317.836L334.076 323.078V351.887H341.07V314.964H319.479Z" fill="black"/>
<path d="M311.444 351.085C311.446 350.679 311.531 350.276 311.696 349.901C311.861 349.526 312.103 349.185 312.406 348.899C312.71 348.612 313.07 348.385 313.467 348.23C313.863 348.076 314.287 347.997 314.715 347.998H321.189C321.617 347.997 322.041 348.076 322.437 348.23C322.834 348.385 323.194 348.612 323.498 348.899C323.801 349.185 324.043 349.526 324.208 349.901C324.373 350.276 324.458 350.679 324.46 351.085C324.457 351.908 324.112 352.697 323.499 353.279C322.886 353.861 322.055 354.189 321.189 354.191H314.725C313.857 354.191 313.024 353.864 312.409 353.282C311.794 352.7 311.447 351.91 311.444 351.085Z" fill="#455A64"/>
<path d="M311.444 351.085C311.446 350.679 311.531 350.276 311.696 349.901C311.861 349.526 312.103 349.185 312.406 348.899C312.71 348.612 313.07 348.385 313.467 348.23C313.863 348.076 314.287 347.997 314.715 347.998H317.947V354.2H314.715C313.847 354.198 313.015 353.869 312.402 353.285C311.789 352.701 311.444 351.91 311.444 351.085Z" fill="#FF407D"/>
<path d="M355.805 351.085C355.805 351.907 355.461 352.694 354.849 353.275C354.238 353.856 353.408 354.182 352.543 354.182H346.07C345.641 354.183 345.216 354.104 344.819 353.949C344.422 353.794 344.062 353.566 343.758 353.278C343.454 352.991 343.213 352.649 343.048 352.272C342.884 351.896 342.799 351.493 342.799 351.085C342.799 350.264 343.143 349.477 343.754 348.896C344.366 348.315 345.195 347.989 346.06 347.989H352.534C352.963 347.988 353.388 348.067 353.785 348.222C354.181 348.377 354.542 348.605 354.846 348.893C355.15 349.18 355.391 349.522 355.555 349.898C355.72 350.275 355.805 350.678 355.805 351.085Z" fill="#455A64"/>
<path d="M355.805 351.085C355.805 351.907 355.461 352.694 354.849 353.275C354.238 353.856 353.408 354.182 352.543 354.182H349.302V347.98H352.543C352.972 347.98 353.397 348.06 353.794 348.216C354.19 348.372 354.55 348.601 354.853 348.89C355.156 349.178 355.396 349.521 355.559 349.898C355.722 350.274 355.806 350.678 355.805 351.085Z" fill="#FF407D"/>
<path d="M353.96 343.568L353.953 343.574C352.68 344.784 352.68 346.744 353.953 347.953L358.531 352.299C359.804 353.509 361.869 353.509 363.143 352.299L363.15 352.293C364.423 351.084 364.423 349.123 363.15 347.914L358.572 343.568C357.299 342.359 355.234 342.359 353.96 343.568Z" fill="#455A64"/>
<path d="M363.142 352.307C362.531 352.886 361.703 353.212 360.839 353.212C359.975 353.212 359.147 352.886 358.535 352.307L356.237 350.153L360.854 345.769L363.142 347.942C363.747 348.524 364.086 349.308 364.086 350.125C364.086 350.942 363.747 351.726 363.142 352.307Z" fill="#FF407D"/>
<path d="M320.57 355.459C320.572 354.637 320.918 353.85 321.531 353.269C322.145 352.689 322.975 352.363 323.841 352.363H330.304C331.169 352.363 331.999 352.689 332.61 353.27C333.222 353.851 333.566 354.638 333.566 355.459C333.566 356.281 333.222 357.068 332.61 357.649C331.999 358.23 331.169 358.556 330.304 358.556H323.841C322.975 358.556 322.145 358.23 321.531 357.65C320.918 357.069 320.572 356.282 320.57 355.459Z" fill="#455A64"/>
<path d="M320.57 355.459C320.572 354.637 320.918 353.85 321.531 353.269C322.145 352.689 322.975 352.363 323.841 352.363H327.082V358.547H323.841C322.977 358.547 322.148 358.222 321.535 357.644C320.922 357.065 320.575 356.28 320.57 355.459Z" fill="#FF407D"/>
<path d="M126.214 321.669V351.906H97.4822V321.669C97.4822 318.023 104.918 313.145 104.918 310.972V306.784H118.759V310.981C118.759 313.145 126.214 318.023 126.214 321.669Z" fill="#C7C7C7"/>
<path d="M125.075 298.689H98.6216V306.784H125.075V298.689Z" fill="#FF407D"/>
<path d="M122.717 325.223H97.4822V340.201H122.717V325.223Z" fill="#455A64"/>
<path d="M98.6216 330.026C98.6216 329.737 98.7591 329.513 98.9359 329.513C99.1127 329.513 99.2502 329.737 99.2502 330.026V335.491C99.2502 335.78 99.1029 336.004 98.9359 336.004C98.7689 336.004 98.6216 335.78 98.6216 335.491V330.026Z" fill="white"/>
<path d="M100.93 335.491C100.93 335.771 100.793 336.004 100.626 336.004C100.459 336.004 100.321 335.771 100.321 335.491V330.11C100.31 329.959 100.352 329.808 100.439 329.681C100.586 329.522 100.773 329.569 100.871 329.793L102.708 333.934V330.119C102.708 329.849 102.836 329.616 103.012 329.616C103.189 329.616 103.317 329.849 103.317 330.119V335.501C103.317 335.78 103.179 336.014 103.012 336.014C102.845 336.014 102.836 335.939 102.777 335.827V335.771L100.96 331.658L100.93 335.491Z" fill="white"/>
<path d="M104.555 334.391C104.653 334.186 104.84 334.158 104.967 334.325C105.082 334.511 105.238 334.671 105.425 334.794C105.611 334.916 105.824 334.998 106.048 335.034C106.185 335.032 106.319 335 106.441 334.942C106.564 334.884 106.671 334.801 106.755 334.699C106.914 334.507 107 334.271 107.001 334.027C107.018 333.928 107.018 333.827 107.001 333.729C106.959 333.626 106.9 333.531 106.824 333.449C106.607 333.246 106.34 333.099 106.048 333.02C105.784 332.942 105.538 332.819 105.321 332.656C105.081 332.465 104.898 332.217 104.79 331.938C104.667 331.585 104.633 331.21 104.689 330.843C104.745 330.475 104.891 330.125 105.115 329.821C105.228 329.672 105.375 329.551 105.545 329.465C105.715 329.379 105.904 329.332 106.097 329.326C106.346 329.364 106.584 329.45 106.797 329.578C107.01 329.706 107.193 329.875 107.335 330.073C107.401 330.168 107.442 330.277 107.456 330.39C107.47 330.504 107.455 330.618 107.413 330.725C107.325 330.949 107.148 331.015 107.01 330.865C106.716 330.558 106.441 330.278 106.097 330.278C105.973 330.282 105.852 330.312 105.742 330.365C105.632 330.418 105.535 330.493 105.458 330.586C105.318 330.752 105.241 330.96 105.242 331.173C105.225 331.259 105.225 331.348 105.242 331.434C105.278 331.524 105.332 331.606 105.4 331.677C105.593 331.869 105.837 332.007 106.107 332.078C106.392 332.161 106.658 332.294 106.893 332.47C107.148 332.676 107.342 332.943 107.452 333.244C107.548 333.495 107.594 333.76 107.59 334.027C107.605 334.544 107.435 335.05 107.109 335.463C106.988 335.622 106.83 335.752 106.648 335.845C106.466 335.937 106.264 335.988 106.058 335.995C105.758 335.949 105.473 335.842 105.222 335.681C104.971 335.52 104.76 335.309 104.604 335.062C104.542 334.961 104.506 334.848 104.497 334.732C104.489 334.616 104.508 334.499 104.555 334.391Z" fill="white"/>
<path d="M110.095 336.004C109.181 336.004 108.454 334.792 108.454 333.328V330.026C108.454 329.737 108.592 329.513 108.769 329.513C108.945 329.513 109.083 329.737 109.083 330.026V333.365C109.083 334.298 109.545 335.006 110.065 335.006C110.586 335.006 111.048 334.27 111.048 333.365V330.063C111.048 329.774 111.185 329.55 111.362 329.55C111.539 329.55 111.676 329.774 111.676 330.063V333.365C111.735 334.792 110.979 336.004 110.095 336.004Z" fill="white"/>
<path d="M112.806 335.491V330.026C112.806 329.746 112.934 329.513 113.11 329.513C113.287 329.513 113.435 329.746 113.435 330.026V334.969H114.967C115.134 334.969 115.281 335.202 115.281 335.491C115.281 335.78 115.134 336.004 114.967 336.004H113.11C112.943 336.004 112.806 335.771 112.806 335.491Z" fill="white"/>
<path d="M116.057 330.026C116.057 329.737 116.195 329.513 116.372 329.513C116.549 329.513 116.686 329.737 116.686 330.026V335.491C116.686 335.78 116.539 336.004 116.372 336.004C116.205 336.004 116.057 335.78 116.057 335.491V330.026Z" fill="white"/>
<path d="M118.366 335.491C118.366 335.771 118.228 336.004 118.061 336.004C117.894 336.004 117.747 335.771 117.747 335.491V330.11C117.723 329.944 117.761 329.776 117.855 329.634C117.992 329.476 118.189 329.522 118.287 329.746L120.114 333.887V330.073C120.114 329.802 120.252 329.569 120.419 329.569C120.586 329.569 120.733 329.802 120.733 330.073V335.454C120.733 335.734 120.595 335.967 120.419 335.967C120.366 335.96 120.317 335.939 120.277 335.905C120.237 335.872 120.207 335.829 120.193 335.78C120.186 335.762 120.186 335.743 120.193 335.724L118.376 331.611L118.366 335.491Z" fill="white"/>
<path opacity="0.3" d="M104.918 306.784V309.629L113.405 314.88L119.299 322.705V351.906H123.356V322.751L117.462 314.898V306.784H104.918Z" fill="white"/>
<path d="M73.4062 356.644V349.565H71.8247V356.644H73.4062Z" fill="#FF407D"/>
<path opacity="0.1" d="M73.4062 356.644V349.565H71.8247V356.644H73.4062Z" fill="black"/>
<path d="M62.6602 355.404V351.067H61.0787V355.404H62.6602Z" fill="#FF407D"/>
<path opacity="0.1" d="M62.6602 355.404V351.067H61.0787V355.404H62.6602Z" fill="black"/>
<path d="M71.8247 354.387V352.083H62.66V354.387H71.8247Z" fill="#FF407D"/>
<path opacity="0.2" d="M70.3513 354.378L70.8523 352.083H71.8248V354.378H70.3513Z" fill="black"/>
<path d="M107.05 352.951C108.631 352.895 110.223 352.876 111.814 352.848H116.578H121.352H123.729L126.116 352.913L123.729 352.969H121.352H116.578H111.814C110.173 353.063 108.582 353.035 107.05 352.951Z" fill="#263238"/>
<path d="M105.9 354.667V351.561H73.4063V354.667H105.9Z" fill="#FF407D"/>
<path opacity="0.4" d="M105.9 354.667V351.561H73.4063V354.667H105.9Z" fill="white"/>
<path d="M102.551 352.26V351.682H102.364V352.26H102.551Z" fill="#263238"/>
<path d="M101.912 352.26V351.682H101.726V352.26H101.912Z" fill="#263238"/>
<path d="M101.274 352.26V351.682H101.087V352.26H101.274Z" fill="#263238"/>
<path d="M100.635 352.26V351.682H100.449V352.26H100.635Z" fill="#263238"/>
<path d="M99.9871 352.68V351.682H99.8004V352.68H99.9871Z" fill="#263238"/>
<path d="M99.3827 352.266L99.3826 351.687L99.1959 351.687L99.196 352.266L99.3827 352.266Z" fill="#263238"/>
<path d="M98.7493 352.26V351.682H98.5626V352.26H98.7493Z" fill="#263238"/>
<path d="M98.1108 352.26V351.682H97.9242V352.26H98.1108Z" fill="#263238"/>
<path d="M97.4724 352.26V351.682H97.2858V352.26H97.4724Z" fill="#263238"/>
<path d="M96.8242 352.68V351.682H96.6376V352.68H96.8242Z" fill="#263238"/>
<path d="M96.2249 352.26V351.682H96.0382V352.26H96.2249Z" fill="#263238"/>
<path d="M95.5864 352.26V351.682H95.3998V352.26H95.5864Z" fill="#263238"/>
<path d="M94.938 352.26V351.682H94.7514V352.26H94.938Z" fill="#263238"/>
<path d="M94.2996 352.26V351.682H94.1129V352.26H94.2996Z" fill="#263238"/>
<path d="M93.6745 352.713L93.6743 351.715L93.4877 351.715L93.4879 352.713L93.6745 352.713Z" fill="#263238"/>
<path d="M93.052 352.26V351.682H92.8654V352.26H93.052Z" fill="#263238"/>
<path d="M92.4136 352.26V351.682H92.2269V352.26H92.4136Z" fill="#263238"/>
<path d="M91.7751 352.26V351.682H91.5885V352.26H91.7751Z" fill="#263238"/>
<path d="M91.1367 352.251V351.673H90.9501V352.251H91.1367Z" fill="#263238"/>
<path d="M90.498 352.68V351.682H90.3114V352.68H90.498Z" fill="#263238"/>
<path d="M89.8892 352.26V351.682H89.7025V352.26H89.8892Z" fill="#263238"/>
<path d="M89.2535 352.256L89.2534 351.678L89.0668 351.678L89.0669 352.256L89.2535 352.256Z" fill="#263238"/>
<path d="M88.6095 352.246L88.6096 351.668L88.423 351.668L88.4229 352.246L88.6095 352.246Z" fill="#263238"/>
<path d="M87.9736 352.26V351.682H87.787V352.26H87.9736Z" fill="#263238"/>
<path d="M87.3352 352.68V351.682H87.1486V352.68H87.3352Z" fill="#263238"/>
<path d="M86.7261 352.261V351.682H86.5394V352.261H86.7261Z" fill="#263238"/>
<path d="M86.0876 352.261V351.682H85.901V352.261H86.0876Z" fill="#263238"/>
<path d="M85.4492 352.26V351.682H85.2626V352.26H85.4492Z" fill="#263238"/>
<path d="M84.8108 352.26V351.682H84.6242V352.26H84.8108Z" fill="#263238"/>
<path d="M84.1721 352.68V351.682H83.9855V352.68H84.1721Z" fill="#263238"/>
<path d="M83.565 352.266L83.5649 351.687L83.3783 351.687L83.3784 352.266L83.565 352.266Z" fill="#263238"/>
<path d="M82.9248 352.26V351.682H82.7382V352.26H82.9248Z" fill="#263238"/>
<path d="M82.2861 352.26V351.682H82.0995V352.26H82.2861Z" fill="#263238"/>
<path d="M81.6477 352.26V351.682H81.4611V352.26H81.6477Z" fill="#263238"/>
<path d="M80.9995 352.68V351.682H80.8129V352.68H80.9995Z" fill="#263238"/>
<path d="M80.4001 352.26V351.682H80.2135V352.26H80.4001Z" fill="#263238"/>
<path d="M79.7617 352.26V351.682H79.5751V352.26H79.7617Z" fill="#263238"/>
<path d="M79.1233 352.26V351.682H78.9367V352.26H79.1233Z" fill="#263238"/>
<path d="M78.4849 352.26V351.682H78.2982V352.26H78.4849Z" fill="#263238"/>
<path d="M77.8471 352.713L77.8469 351.715L77.6603 351.715L77.6605 352.713L77.8471 352.713Z" fill="#263238"/>
<path d="M77.2373 352.26V351.682H77.0507V352.26H77.2373Z" fill="#263238"/>
<path d="M76.5986 352.26V351.682H76.412V352.26H76.5986Z" fill="#263238"/>
<path d="M75.9602 352.26V351.682H75.7736V352.26H75.9602Z" fill="#263238"/>
<path d="M75.3218 352.261V351.682H75.1351V352.261H75.3218Z" fill="#263238"/>
<path d="M74.6736 352.68V351.682H74.4869V352.68H74.6736Z" fill="#263238"/>
<path d="M105.9 354.667V351.561H103.454V354.667H105.9Z" fill="#263238"/>
<path d="M108.7 354.154V352.055H105.891V354.154H108.7Z" fill="#FF407D"/>
<path d="M112.069 353.38V352.839L108.71 352.745V353.482L112.069 353.38Z" fill="#FF407D"/>
<path opacity="0.1" d="M108.71 353.482V352.745L109.663 352.773L109.515 353.454L108.71 353.482Z" fill="black"/>
</svg>
